<svg width="185" height="10" viewBox="0 0 185 10" fill="none" xmlns="http://www.w3.org/2000/svg">
<path d="M100.463 9.99236C99.8717 9.99842 99.2951 9.80481 98.8233 9.44179C98.3516 9.07877 98.0113 8.56682 97.8556 7.98596C97.8031 7.8105 97.7357 7.77235 97.5634 7.77235H86.564C86.3692 7.77235 86.3467 7.87916 86.3092 8.00885C86.1414 8.59891 85.7846 9.11489 85.2957 9.47477C84.8067 9.83464 84.2136 10.0177 83.6107 9.99494C83.0078 9.97213 82.4296 9.74474 81.9682 9.34893C81.5068 8.95312 81.1886 8.41161 81.0643 7.8105C80.9578 7.32914 80.984 6.82719 81.14 6.36004C81.2961 5.8929 81.5758 5.47874 81.9484 5.16326C82.0758 5.0412 82.0758 5.00305 81.9484 4.88099C81.5289 4.5137 81.2316 4.02299 81.0974 3.47647C80.9632 2.92994 80.9987 2.35451 81.1991 1.82942C81.4025 1.3063 81.7572 0.858413 82.2161 0.545075C82.6751 0.231738 83.2166 0.0677282 83.7691 0.0747626C84.4417 0.0861585 85.0859 0.353027 85.5752 0.823017C86.0646 1.29301 86.3637 1.9322 86.4141 2.6152C86.4141 2.80592 86.489 2.83644 86.6614 2.83644C90.2654 2.83644 93.8769 2.83644 97.4884 2.83644C97.7282 2.83644 97.7357 2.722 97.7507 2.54653C97.7853 2.09539 97.9283 1.65983 98.167 1.27814C98.4058 0.896462 98.733 0.580363 99.1199 0.357646C99.5067 0.13493 99.9414 0.0124194 100.386 0.000895775C100.83 -0.0106278 101.27 0.0891837 101.668 0.291555C102.065 0.493927 102.408 0.792658 102.665 1.16147C102.923 1.53028 103.088 1.95787 103.145 2.40663C103.202 2.8554 103.15 3.31158 102.993 3.73506C102.836 4.15853 102.58 4.53633 102.246 4.83521C102.044 5.02594 102.044 5.02594 102.246 5.21666C102.648 5.5917 102.929 6.08145 103.052 6.62176C103.176 7.16207 103.136 7.72776 102.938 8.24474C102.741 8.76172 102.394 9.2059 101.945 9.51909C101.495 9.83229 100.963 9.99991 100.418 10L100.463 9.99236Z" fill="white"/>
<line x1="68" y1="6" x2="1" y2="6.00001" stroke="white" stroke-width="2" stroke-linecap="round" stroke-linejoin="round"/>
<line x1="184" y1="6" x2="117" y2="6.00001" stroke="white" stroke-width="2" stroke-linecap="round" stroke-linejoin="round"/>
</svg>
