<svg xmlns="http://www.w3.org/2000/svg" fill="none" viewBox="0 0 168 113" height="113" width="168">
<g clip-path="url(#clip0_835_6774)" id="Layer_1">
<g id="Group">
<path fill="#102242" d="M28.6575 58.0824C26.5149 58.0824 24.7389 57.7048 23.3293 56.9497C21.9197 56.1945 20.8672 55.2103 20.1749 53.994C19.4796 52.7777 19.1319 51.484 19.1319 50.113C19.1319 48.6429 19.3887 47.1821 19.9056 45.7306C20.4224 44.2791 21.171 43.0256 22.1515 41.9672C23.1351 40.9087 24.3003 40.0205 25.6472 39.3055C26.9973 38.5906 28.2973 38.2316 29.5471 38.2316C30.5181 38.2316 31.3764 38.5318 32.1219 39.1291C32.8674 39.7264 33.2371 40.2526 33.2371 40.7013C33.2371 41.0356 32.9301 41.2801 32.313 41.4348C29.7131 42.1002 27.4797 43.3475 25.6159 45.1704C24.1875 46.5817 23.4734 48.1694 23.4734 49.9335C23.4734 51.2086 23.9683 52.2918 24.9613 53.1832C25.9542 54.0745 27.273 54.5202 28.9206 54.5202C30.349 54.5202 31.8024 54.0064 33.2809 52.9758C34.7594 51.9452 36.003 50.6082 37.0179 48.9617C38.0296 47.3152 38.5371 45.5511 38.5371 43.6694C38.5371 41.7691 38.1205 40.1597 37.2872 38.8475C36.454 37.5352 35.3733 36.3808 34.0421 35.3904C32.7108 34.4001 31.2824 33.453 29.757 32.5524C28.4476 31.7694 27.1633 30.9338 25.901 30.0517C24.6417 29.1697 23.4953 28.1545 22.4616 27.0063C21.431 25.8612 20.601 24.5056 19.9776 22.9489C19.3511 21.389 19.041 19.5413 19.041 17.4058C19.041 14.2305 19.7615 11.3243 21.1992 8.68745C22.637 6.05057 24.6261 3.94293 27.1665 2.36452C29.7068 0.789205 32.6356 0 35.9497 0C38.8472 0 41.1432 0.711832 42.841 2.1324C44.5387 3.55297 45.3845 5.75346 45.3845 8.73387C45.3845 10.009 45.1652 11.3181 44.7298 12.6582C44.2944 14.0014 43.6773 15.1249 42.8848 16.0255C41.9921 17.0066 40.9396 17.4956 39.7305 17.4956C38.5214 17.4956 37.8855 17.2202 37.8855 16.6724C37.8855 16.4774 37.9952 16.2112 38.2113 15.877C39.0257 14.6235 39.6553 13.2989 40.1033 11.9062C40.5481 10.5135 40.7736 9.25072 40.7736 8.11179C40.7736 6.87692 40.4854 5.83393 39.9091 4.97973C39.3327 4.12553 38.4306 3.70153 37.1995 3.70153C35.4329 3.70153 33.7382 4.2648 32.1094 5.39136C30.4837 6.51791 29.1524 7.96014 28.1218 9.71496C27.0913 11.4698 26.5744 13.2865 26.5744 15.1713C26.5744 17.2109 27.0098 18.9688 27.8838 20.4513C28.7577 21.9306 29.8729 23.2583 31.2323 24.4375C32.5918 25.6136 34.0452 26.7432 35.5926 27.8203C38.6091 29.897 40.8394 31.7911 42.2897 33.4964C44.332 35.9073 45.3563 38.7299 45.3563 41.9672C45.3563 43.9479 44.9334 45.8946 44.0908 47.8042C43.2482 49.7168 42.0704 51.4407 40.5637 52.982C39.057 54.5202 37.2841 55.755 35.2512 56.6866C33.2151 57.6182 31.0193 58.0824 28.6575 58.0824Z" id="Vector"></path>
<path fill="#102242" d="M69.1179 57.3887C65.1491 57.3887 62.9157 53.3808 62.4208 45.3618C61.6064 48.0885 60.7136 50.3323 59.7426 52.0964C58.0574 55.117 56.0119 56.6243 53.6125 56.6243C52.2843 56.6243 51.2506 56.2869 50.5177 55.6091C49.7847 54.9313 49.2616 54.0648 48.9546 53.0063C48.6476 51.9478 48.4941 50.8677 48.4941 49.7721C48.4941 48.2804 48.6038 46.6401 48.823 44.845C49.0423 43.0499 49.3931 41.2766 49.8787 39.5217C50.3642 37.7669 51.0157 36.1606 51.827 34.6998C52.6414 33.239 53.6469 32.063 54.8466 31.1716C56.0464 30.2803 57.4622 29.8346 59.0879 29.8346C60.7136 29.8346 61.9635 30.5495 63.0755 31.9825C63.2133 31.413 63.4232 30.9426 63.7019 30.5712C64.3754 29.6892 65.6064 29.2466 67.3919 29.2466C68.6417 29.2466 69.5313 29.423 70.0544 29.7758C70.5807 30.1286 70.8438 30.7074 70.8438 31.5121C70.8438 31.8649 70.8125 32.2579 70.753 32.6881C70.6527 33.335 70.4961 34.7184 70.2768 36.8353C69.7819 41.6387 69.5345 45.659 69.5345 48.8932C69.5345 49.4626 69.5595 50.3478 69.6096 51.5548C69.6598 52.7618 69.9323 53.3622 70.4272 53.3622C71.3387 53.3622 72.6481 51.4496 74.3552 47.6273C75.6051 44.8048 76.7171 41.8429 77.6881 38.7449C77.8667 38.1971 78.2551 37.9217 78.8471 37.9217C79.342 37.9217 79.721 38.0888 79.9779 38.423C80.1376 38.6397 80.216 38.8842 80.216 39.1565C80.216 39.4691 79.6208 41.3137 78.4305 44.6841C75.4328 53.1549 72.3286 57.3887 69.1147 57.3887M56.0182 51.3598C56.535 51.3598 57.1584 50.6139 57.8945 49.1253C58.6275 47.6366 59.3479 45.8849 60.0527 43.8763C60.7575 41.8677 61.3526 39.9983 61.8382 38.2745C62.3237 36.5475 62.5868 35.3714 62.6275 34.7463C62.4897 34.511 62.261 34.2913 61.9415 34.0839C61.6252 33.8766 61.2869 33.7745 60.9298 33.7745C59.1631 33.7745 57.7253 35.5478 56.6133 39.0977C55.6203 42.2731 55.1254 45.7332 55.1254 49.4781C55.1254 50.7315 55.423 51.3598 56.0182 51.3598Z" id="Vector_2"></path>
<path fill="#102242" d="M89.2497 57.3849C86.9286 57.3849 85.187 56.5184 84.0248 54.7821C82.8658 53.0459 82.2832 50.6597 82.2832 47.6205C82.2832 45.974 82.4931 43.9437 82.9097 41.5327C83.3263 39.1218 83.7742 37.1318 84.2504 35.5626C83.2574 35.2872 82.3365 34.9344 81.4813 34.5042C81.024 36.4849 80.5698 38.1995 80.1125 39.651C79.9339 40.2205 79.5549 40.5052 78.9817 40.5052C78.4868 40.5052 78.1077 40.3288 77.8509 39.976C77.6911 39.7625 77.6128 39.5241 77.6128 39.2704C77.6128 39.1125 77.6441 38.9361 77.7005 38.7411C78.2362 37.1937 78.6841 35.2222 79.0412 32.8298C77.6723 31.595 76.9863 30.0939 76.9863 28.3298V27.1537C76.9863 26.0953 77.2432 25.4051 77.76 25.0801C78.2769 24.7552 79.0193 24.5942 79.9934 24.5942C80.3912 24.5942 80.7953 24.6283 81.2151 24.6964C81.6317 24.7645 81.9731 24.9161 82.2425 25.1513C82.5088 25.3865 82.6434 25.7486 82.6434 26.2407C82.6434 27.8687 82.4649 29.5554 82.1078 31.2978C83.2198 32.5729 85.0335 33.4736 87.555 34.0028C89.0022 34.2968 90.0547 34.7084 90.7094 35.2377C91.1448 35.5905 91.364 36.1971 91.364 37.0606C91.364 37.7074 91.2168 38.6978 90.9192 40.0317C89.9858 44.3244 89.5191 47.8247 89.5191 50.5297C89.5191 52.4114 89.8668 53.3523 90.5622 53.3523C91.4737 53.3523 92.783 51.4396 94.4902 47.6174C95.74 44.7948 96.8426 41.833 97.7949 38.7349C97.9546 38.1871 98.3493 37.9117 98.9852 37.9117C99.4613 37.9117 99.8278 38.0788 100.088 38.4131C100.248 38.6483 100.326 38.9021 100.326 39.1775C100.326 39.4715 99.7401 41.3037 98.5686 44.6772C95.574 53.148 92.4667 57.3819 89.2528 57.3819" id="Vector_3"></path>
<path fill="#102242" d="M116.778 57.3887C112.809 57.3887 110.576 53.3808 110.081 45.3618C109.267 48.0885 108.374 50.3323 107.403 52.0964C105.718 55.117 103.672 56.6243 101.273 56.6243C99.9445 56.6243 98.9108 56.2869 98.1778 55.6091C97.4448 54.9313 96.9217 54.0648 96.6148 53.0063C96.3078 51.9478 96.1543 50.8677 96.1543 49.7721C96.1543 48.2804 96.2639 46.6401 96.4832 44.845C96.7025 43.0499 97.0533 41.2766 97.5388 39.5217C98.0243 37.7669 98.6759 36.1606 99.4872 34.6998C100.302 33.239 101.307 32.063 102.507 31.1716C103.707 30.2803 105.122 29.8346 106.748 29.8346C108.374 29.8346 109.624 30.5495 110.736 31.9825C110.873 31.413 111.083 30.9426 111.362 30.5712C112.036 29.6892 113.267 29.2466 115.052 29.2466C116.302 29.2466 117.191 29.423 117.715 29.7758C118.241 30.1286 118.504 30.7074 118.504 31.5121C118.504 31.8649 118.473 32.2579 118.413 32.6881C118.313 33.335 118.156 34.7184 117.937 36.8353C117.442 41.6387 117.195 45.659 117.195 48.8932C117.195 49.4626 117.22 50.3478 117.27 51.5548C117.32 52.7618 117.592 53.3622 118.087 53.3622C118.999 53.3622 120.308 51.4496 122.015 47.6273C123.265 44.8048 124.377 41.8429 125.348 38.7449C125.527 38.1971 125.915 37.9217 126.507 37.9217C127.002 37.9217 127.381 38.0888 127.638 38.423C127.798 38.6397 127.876 38.8842 127.876 39.1565C127.876 39.4691 127.281 41.3137 126.091 44.6841C123.093 53.1549 119.989 57.3887 116.775 57.3887M103.678 51.3598C104.195 51.3598 104.819 50.6139 105.555 49.1253C106.288 47.6366 107.008 45.8849 107.713 43.8763C108.418 41.8677 109.013 39.9983 109.498 38.2745C109.984 36.5475 110.247 35.3714 110.288 34.7463C110.15 34.511 109.921 34.2913 109.602 34.0839C109.285 33.8766 108.947 33.7745 108.59 33.7745C106.823 33.7745 105.385 35.5478 104.273 39.0977C103.281 42.2731 102.786 45.7332 102.786 49.4781C102.786 50.7315 103.083 51.3598 103.678 51.3598Z" id="Vector_4"></path>
<path fill="#102242" d="M127.427 27.9244C126.969 27.9244 126.603 27.8068 126.324 27.5716C126.164 27.4354 126.086 27.2683 126.086 27.0702C126.086 26.8938 126.145 26.7174 126.264 26.541C126.622 26.0118 127.001 25.3463 127.395 24.5417C128.388 22.5238 128.883 20.6513 128.883 18.9244C128.883 18.5313 128.864 18.2497 128.824 18.0702C128.745 17.7576 128.526 17.5688 128.169 17.5131C126.86 17.3367 126.205 16.3865 126.205 14.6596C126.205 13.5609 126.387 12.7345 126.756 12.1744C127.123 11.6173 127.615 11.249 128.228 11.0726C128.842 10.8961 129.519 10.8064 130.252 10.8064C131.602 10.8064 132.498 11.1778 132.946 11.9237C133.394 12.6695 133.616 13.7373 133.616 15.13C133.616 16.1699 133.431 17.4079 133.065 18.8501C132.698 20.2923 132.216 21.6974 131.621 23.0716C131.026 24.4426 130.362 25.597 129.626 26.5286C128.893 27.4602 128.156 27.9244 127.423 27.9244" id="Vector_5"></path>
<path fill="#102242" d="M138.486 57.8909C137.218 57.8909 136.15 57.4576 135.288 56.5972C134.424 55.7337 133.994 54.6474 133.994 53.332C133.994 51.2739 134.928 49.5005 136.792 48.0088L137.716 47.3031C137.299 46.4984 136.842 45.6969 136.347 44.8922C135.692 43.7966 135.063 42.6762 134.458 41.5404C133.854 40.4045 133.352 39.2656 132.955 38.1298C132.557 36.9908 132.359 35.855 132.359 34.7192C132.359 32.0142 133.108 29.9932 134.605 28.6624C136.103 27.3285 137.854 26.6631 139.858 26.6631C140.215 26.6631 140.613 26.6971 141.049 26.7652C141.484 26.8333 141.863 26.9602 142.179 27.1459C142.496 27.3316 142.656 27.6132 142.656 27.9846C142.656 28.8264 141.973 29.3092 140.601 29.4238C138.875 29.563 138.01 30.346 138.01 31.7759C138.01 33.0696 138.273 34.3849 138.8 35.7157C139.326 37.0496 139.946 38.4207 140.66 39.832C141.334 41.1257 141.96 42.4689 142.537 43.8616C143.031 43.4499 143.53 43.0198 144.024 42.5679C145.494 41.2154 146.593 39.4018 147.329 37.127L147.686 35.951C147.846 35.4031 148.241 35.1277 148.877 35.1277C149.371 35.1277 149.738 35.2948 149.976 35.6291C150.136 35.8643 150.214 36.1181 150.214 36.3935C150.214 36.5699 150.164 36.8144 150.067 37.127C149.014 40.3024 147.605 42.7629 145.841 44.5084C145.049 45.2945 144.262 46.0095 143.489 46.6563C143.984 48.343 144.231 50.039 144.231 51.7443C144.231 53.4713 143.724 54.9259 142.712 56.1113C141.7 57.2966 140.291 57.8909 138.486 57.8909ZM138.634 55.4211C139.467 55.4211 139.883 54.8331 139.883 53.657C139.883 52.4809 139.605 51.2553 139.05 49.9802C137.919 50.9799 137.352 52.1281 137.352 53.4218C137.352 53.9139 137.471 54.3688 137.71 54.7897C137.948 55.2107 138.255 55.4211 138.634 55.4211Z" id="Vector_6"></path>
</g>
<g id="Group_2">
<path fill="#102242" d="M72.9244 94.472H48.1315C47.7086 94.472 47.3672 94.1346 47.3672 93.7168C47.3672 93.299 47.7086 92.9617 48.1315 92.9617H72.9244C73.3473 92.9617 73.6887 93.299 73.6887 93.7168C73.6887 94.1346 73.3473 94.472 72.9244 94.472Z" id="Vector_7"></path>
<path fill="#102242" d="M121.995 94.472H97.2018C96.7789 94.472 96.4375 94.1346 96.4375 93.7168C96.4375 93.299 96.7789 92.9617 97.2018 92.9617H121.995C122.418 92.9617 122.759 93.299 122.759 93.7168C122.759 94.1346 122.418 94.472 121.995 94.472Z" id="Vector_8"></path>
<path fill="#102242" d="M91.4189 97.3505C90.5042 97.3536 89.7023 96.7625 89.4549 95.8866C89.4173 95.7567 89.364 95.7257 89.2356 95.7257C86.4853 95.7288 83.7351 95.7288 80.9849 95.7257C80.8376 95.7257 80.8188 95.8 80.7906 95.899C80.5338 96.7842 79.6912 97.3877 78.764 97.3475C77.8149 97.3103 77.0161 96.6542 76.8376 95.7505C76.6872 94.9891 76.919 94.3392 77.5016 93.8192C77.6019 93.7295 77.6019 93.7016 77.5016 93.615C76.8376 93.0455 76.6183 92.1635 76.9315 91.3619C77.2385 90.585 78.0153 90.0713 78.8642 90.0806C79.9073 90.0929 80.7844 90.9069 80.8533 91.9344C80.8627 92.0737 80.9159 92.0954 81.0412 92.0954C83.757 92.0954 86.4728 92.0923 89.1886 92.0954C89.3672 92.0954 89.3734 92.0149 89.3859 91.888C89.4768 91.0183 90.1001 90.3282 90.9615 90.1301C91.8605 89.9227 92.7909 90.3498 93.22 91.1638C93.646 91.9716 93.4675 92.9619 92.7909 93.5716C92.6865 93.6666 92.6865 93.7604 92.7909 93.8533C93.4017 94.398 93.6116 95.2924 93.3109 96.0661C93.0133 96.8306 92.2552 97.3413 91.4126 97.3475" id="Vector_9"></path>
</g>
<g id="Group_3">
<path fill="#102242" d="M4.83486 84.3467C3.95779 84.3467 3.42215 83.932 3.2342 83.0778L0.0579506 69.6582C-0.176979 68.6647 0.314807 68.0674 1.30778 68.0674H1.59909C2.48556 68.0674 3.01494 68.4821 3.18722 69.3487L5.30159 79.0296L7.34391 69.3487C7.51619 68.4821 8.03304 68.0674 8.91951 68.0674H9.14191C10.0284 68.0674 10.5484 68.4697 10.7175 69.3487L12.7504 79.0296L14.8867 69.3487C15.0621 68.4821 15.5884 68.0674 16.4749 68.0674H16.7317C17.7591 68.0674 18.2509 68.6678 18.016 69.6582L14.8272 83.0778C14.6299 83.9443 14.1036 84.3467 13.2266 84.3467H12.5844C11.6979 84.3467 11.178 83.9443 11.0088 83.0654L9.03541 73.5578L7.04947 83.0654C6.88032 83.9412 6.36034 84.3467 5.47387 84.3467H4.83173H4.83486Z" id="Vector_10"></path>
<path fill="#102242" d="M20.9421 84.3467C19.9961 84.3467 19.4824 83.8391 19.4824 82.9044V69.5096C19.4824 68.575 19.9961 68.0674 20.9421 68.0674H21.246C22.1919 68.0674 22.7057 68.575 22.7057 69.5096V74.8391H27.0158V69.5096C27.0158 68.575 27.5296 68.0674 28.4755 68.0674H28.7794C29.7254 68.0674 30.2391 68.575 30.2391 69.5096V82.9044C30.2391 83.8391 29.7254 84.3467 28.7794 84.3467H28.4755C27.5296 84.3467 27.0158 83.8391 27.0158 82.9044V77.609H22.7057V82.9044C22.7057 83.8391 22.1919 84.3467 21.246 84.3467H20.9421Z" id="Vector_11"></path>
<path fill="#102242" d="M32.2637 78.7294V73.7094C32.2637 70.3855 34.519 68.0674 37.7767 68.0674C40.9999 68.0674 43.2897 70.3855 43.2897 73.7094V78.7294C43.2897 82.041 40.9999 84.3498 37.7767 84.3498C34.519 84.3498 32.2637 82.041 32.2637 78.7294ZM40.054 78.8439V73.5949C40.054 71.772 38.9921 71.1159 37.7767 71.1159C36.6428 71.1159 35.4869 71.7039 35.4869 73.5856V78.8346C35.4869 80.6452 36.5833 81.3044 37.7767 81.3044C38.873 81.3044 40.054 80.7163 40.054 78.847V78.8439Z" id="Vector_12"></path>
<path fill="#102242" d="M46.7937 84.3467C45.8477 84.3467 45.334 83.8391 45.334 82.9044V69.5096C45.334 68.575 45.8477 68.0674 46.7937 68.0674H47.0975C48.0435 68.0674 48.5572 68.575 48.5572 69.5096V81.2889H52.5385C53.4845 81.2889 53.9982 81.7965 53.9982 82.7311V82.9044C53.9982 83.8391 53.4845 84.3467 52.5385 84.3467H46.7937Z" id="Vector_13"></path>
<path fill="#102242" d="M56.8015 84.3467C55.8555 84.3467 55.3418 83.8391 55.3418 82.9044V69.5096C55.3418 68.575 55.8555 68.0674 56.8015 68.0674H63.0945C64.0405 68.0674 64.5542 68.575 64.5542 69.5096V69.6953C64.5542 70.63 64.0405 71.1376 63.0945 71.1376H58.5525V74.8298H61.5408C62.4868 74.8298 63.0005 75.3157 63.0005 76.2132C63.0005 77.1108 62.4868 77.609 61.5408 77.609H58.5525V81.2889H63.0945C64.0405 81.2889 64.5542 81.7965 64.5542 82.7311V82.9044C64.5542 83.8391 64.0405 84.3467 63.0945 84.3467H56.8015Z" id="Vector_14"></path>
<path fill="#102242" d="M70.7455 84.3436C67.9326 84.3436 65.8182 82.6816 65.3389 80.2366C65.0946 79.2091 65.6428 78.5994 66.6702 78.5994H66.7642C67.6914 78.5994 68.0359 79.0141 68.2865 79.5929C68.6468 80.6761 69.48 81.357 70.8394 81.357C72.1237 81.357 73.0697 80.6885 73.0697 79.4876C73.0697 78.1352 71.6852 77.7885 70.1033 77.3831C67.9733 76.826 65.4548 76.1575 65.4548 72.8428C65.4548 69.8903 67.5097 68.0674 70.7799 68.0674C73.4425 68.0674 75.4159 69.522 75.9766 72.001C76.246 72.9821 75.7197 73.6382 74.6578 73.6382H74.5639C73.762 73.6382 73.4111 73.2452 73.1418 72.7005C72.7659 71.7287 71.9765 71.0447 70.7329 71.0447C69.4894 71.0447 68.6436 71.7256 68.6436 72.8459C68.6436 74.2356 70.0407 74.5698 71.6351 74.9505C73.7745 75.4673 76.2929 76.0801 76.2929 79.4134C76.2929 82.4588 74.1097 84.3529 70.7455 84.3529V84.3436Z" id="Vector_15"></path>
<path fill="#102242" d="M77.5117 78.7294V73.7094C77.5117 70.3855 79.767 68.0674 83.0247 68.0674C86.248 68.0674 88.5378 70.3855 88.5378 73.7094V78.7294C88.5378 82.041 86.248 84.3498 83.0247 84.3498C79.767 84.3498 77.5117 82.041 77.5117 78.7294ZM85.302 78.8439V73.5949C85.302 71.772 84.2401 71.1159 83.0247 71.1159C81.8908 71.1159 80.735 71.7039 80.735 73.5856V78.8346C80.735 80.6452 81.8313 81.3044 83.0247 81.3044C84.1211 81.3044 85.302 80.7163 85.302 78.847V78.8439Z" id="Vector_16"></path>
<path fill="#102242" d="M92.0437 84.3467C91.0977 84.3467 90.584 83.8391 90.584 82.9044V69.5096C90.584 68.575 91.0977 68.0674 92.0437 68.0674H92.5355C93.3656 68.0674 93.9137 68.4264 94.205 69.2094L97.4408 77.2748L100.677 69.2094C100.968 68.4233 101.516 68.0674 102.346 68.0674H102.838C103.784 68.0674 104.298 68.575 104.298 69.5096V82.9044C104.298 83.8391 103.784 84.3467 102.838 84.3467H102.547C101.601 84.3467 101.087 83.8391 101.087 82.9044V74.9319L98.9036 80.1469C98.6061 80.9144 98.1801 81.3013 97.4314 81.3013C96.6828 81.3013 96.2568 80.9144 95.9592 80.1469L93.7978 74.9907V82.9044C93.7978 83.8391 93.2841 84.3467 92.3381 84.3467H92.0468H92.0437Z" id="Vector_17"></path>
<path fill="#102242" d="M108.255 84.3467C107.309 84.3467 106.795 83.8391 106.795 82.9044V69.5096C106.795 68.575 107.309 68.0674 108.255 68.0674H114.548C115.494 68.0674 116.007 68.575 116.007 69.5096V69.6953C116.007 70.63 115.494 71.1376 114.548 71.1376H110.006V74.8298H112.994C113.94 74.8298 114.454 75.3157 114.454 76.2132C114.454 77.1138 113.94 77.609 112.994 77.609H110.006V81.2889H114.548C115.494 81.2889 116.007 81.7965 116.007 82.7311V82.9044C116.007 83.8391 115.494 84.3467 114.548 84.3467H108.255Z" id="Vector_18"></path>
<path fill="#102242" d="M123.653 84.3467C122.707 84.3467 122.193 83.8391 122.193 82.9044V69.5096C122.193 68.575 122.707 68.0674 123.653 68.0674H129.586C130.532 68.0674 131.046 68.575 131.046 69.5096V69.6953C131.046 70.63 130.532 71.1376 129.586 71.1376H125.404V74.8298H128.067C129.013 74.8298 129.526 75.3157 129.526 76.2132C129.526 77.1108 129.025 77.609 128.101 77.609H125.404V82.9044C125.404 83.8391 124.89 84.3467 123.944 84.3467H123.653Z" id="Vector_19"></path>
<path fill="#102242" d="M131.541 78.7294V73.7094C131.541 70.3855 133.796 68.0674 137.054 68.0674C140.312 68.0674 142.567 70.3855 142.567 73.7094V78.7294C142.567 82.041 140.277 84.3498 137.054 84.3498C133.831 84.3498 131.541 82.041 131.541 78.7294ZM139.331 78.8439V73.5949C139.331 71.772 138.269 71.1159 137.054 71.1159C135.92 71.1159 134.764 71.7039 134.764 73.5856V78.8346C134.764 80.6452 135.861 81.3044 137.054 81.3044C138.15 81.3044 139.331 80.7163 139.331 78.847V78.8439Z" id="Vector_20"></path>
<path fill="#102242" d="M144.023 78.7294V73.7094C144.023 70.3855 146.279 68.0674 149.536 68.0674C152.794 68.0674 155.049 70.3855 155.049 73.7094V78.7294C155.049 82.041 152.76 84.3498 149.536 84.3498C146.313 84.3498 144.023 82.041 144.023 78.7294ZM151.814 78.8439V73.5949C151.814 71.772 150.752 71.1159 149.536 71.1159C148.403 71.1159 147.247 71.7039 147.247 73.5856V78.8346C147.247 80.6452 148.343 81.3044 149.536 81.3044C150.633 81.3044 151.814 80.7163 151.814 78.847V78.8439Z" id="Vector_21"></path>
<path fill="#102242" d="M158.538 84.3467C157.592 84.3467 157.078 83.8391 157.078 82.9044V69.5096C157.078 68.575 157.592 68.0674 158.538 68.0674H162.485C165.73 68.0674 167.998 70.1781 167.998 74.1365V78.3147C167.998 82.2483 165.733 84.3498 162.485 84.3498H158.538V84.3467ZM160.301 81.3229H162.099C163.5 81.3229 164.796 80.7009 164.796 78.0238V74.3996C164.796 71.7472 163.547 71.1221 162.099 71.1221H160.301V81.3229Z" id="Vector_22"></path>
</g>
</g>
<defs>
<clipPath id="clip0_835_6774">
<rect fill="white" height="112.528" width="168"></rect>
</clipPath>
</defs>
</svg>
