<svg xmlns="http://www.w3.org/2000/svg" fill="none" viewBox="0 0 907 151" height="151" width="907">
<g clip-path="url(#clip0_101_18)">
<path fill="#C1842D" d="M809.043 90.5439H811.682C817.974 90.5439 822.998 89.8197 826.772 88.374C827.429 89.5086 827.759 90.6941 827.759 91.9118C827.759 92.8237 827.464 93.4889 826.86 93.918C826.259 94.3364 825.044 94.551 823.194 94.551L798.421 94.5832C798.159 93.8832 798.027 93.218 798.027 92.5931C798.027 92.1827 798.134 91.8769 798.346 91.6892C798.561 91.4826 798.923 91.3834 799.416 91.3834H801.712C801.86 88.4894 801.943 81.1027 801.943 69.2289C801.943 62.8722 801.852 58.2589 801.68 55.3729H798.424C798.161 54.6729 798.03 54.0238 798.03 53.423C798.03 52.9858 798.137 52.6747 798.349 52.4762C798.564 52.2777 798.926 52.1812 799.419 52.1812H812.857C813.128 52.798 813.267 53.4069 813.267 53.9809C813.267 54.4905 813.16 54.8606 812.953 55.0671C812.749 55.271 812.377 55.3702 811.835 55.3702H809.04C808.901 58.2562 808.825 62.9929 808.825 69.5963C808.825 81.2261 808.901 88.2077 809.04 90.5439"></path>
<path fill="#C1842D" d="M851.445 51.5616C855.935 51.5616 859.051 51.8244 860.789 52.3501C862.533 52.8758 863.396 53.8977 863.396 55.4024C863.396 56.7918 862.836 58.0256 861.717 59.1038C857.367 57.1217 853.336 56.1185 849.61 56.1185C846.987 56.1185 845.128 56.6469 844.042 57.6903C842.948 58.7363 842.406 60.182 842.406 62.0166C842.406 63.9477 843.055 65.4792 844.348 66.6138C845.646 67.7564 848.105 68.8909 851.724 70.0282C856.01 71.3102 859.242 72.7908 861.454 74.4617C863.657 76.122 864.826 78.8202 864.949 82.5377C864.949 86.7004 863.517 89.8492 860.682 91.9788C857.836 94.1085 853.478 95.1786 847.623 95.1786C843.551 95.1786 840.453 94.8836 838.348 94.3069C836.242 93.7249 835.183 92.6547 835.183 91.083C835.183 89.6507 835.784 88.3848 836.983 87.2985C841.078 89.5274 845.34 90.6378 849.771 90.6378C852.815 90.6378 854.969 90.1443 856.259 89.1492C857.541 88.1622 858.185 86.6253 858.185 84.56C858.185 82.0764 857.257 80.2096 855.406 78.9678C853.556 77.7259 850.594 76.468 846.539 75.1859C842.607 73.9843 839.812 72.4796 838.144 70.6719C836.484 68.8614 835.65 66.485 835.65 63.54C835.65 59.8816 837.007 56.9688 839.729 54.807C842.451 52.6452 846.359 51.5669 851.447 51.5669"></path>
<path fill="#C1842D" d="M187.579 52.1812H200.651C200.898 52.798 201.024 53.4069 201.024 53.9809C201.024 54.4985 200.917 54.8606 200.713 55.0671C200.509 55.271 200.147 55.381 199.627 55.381H197.422C197.275 58.2589 197.205 63.1699 197.205 70.1274H215.615C215.591 63.1699 215.508 58.2589 215.36 55.381H212.166C211.898 54.6729 211.764 54.0157 211.764 53.423C211.764 52.9858 211.874 52.6747 212.093 52.4762C212.303 52.2777 212.665 52.1812 213.164 52.1812H226.236C226.483 52.798 226.607 53.4069 226.607 53.9809C226.607 54.4985 226.502 54.8606 226.293 55.0671C226.086 55.271 225.724 55.381 225.207 55.381H222.691C222.548 58.2589 222.476 62.9956 222.476 69.591C222.476 81.2288 222.559 88.4813 222.723 91.3512H226.234C226.481 91.9762 226.604 92.577 226.604 93.1617C226.604 93.6713 226.499 94.0334 226.29 94.2399C226.084 94.4545 225.721 94.5537 225.204 94.5537H212.163C211.895 93.8456 211.761 93.2046 211.761 92.5957C211.761 92.1666 211.871 91.8474 212.091 91.6489C212.3 91.4531 212.662 91.3539 213.161 91.3539H215.36C215.511 88.9185 215.591 83.1707 215.615 74.1318H197.205C197.226 83.1439 197.307 88.8944 197.457 91.3539H200.651C200.898 91.9788 201.024 92.5796 201.024 93.1644C201.024 93.674 200.917 94.036 200.713 94.2426C200.509 94.4571 200.147 94.5564 199.627 94.5564H186.589C186.321 93.8483 186.181 93.2073 186.181 92.5984C186.181 92.1693 186.297 91.8501 186.511 91.6516C186.726 91.4558 187.088 91.3566 187.581 91.3566H190.1C190.263 88.4867 190.355 81.1081 190.355 69.2342C190.331 62.8776 190.247 58.2643 190.1 55.3863H186.592C186.323 54.6782 186.184 54.0211 186.184 53.4283C186.184 52.9912 186.299 52.68 186.514 52.4816C186.728 52.2831 187.091 52.1865 187.584 52.1865"></path>
<path fill="#C1842D" d="M238.019 52.1812H264.594C265.774 52.1812 266.581 52.3448 267.016 52.6747C267.442 53.0126 267.665 53.6697 267.665 54.6648C267.665 55.9227 267.271 57.2316 266.479 58.5808C262.574 56.9849 257.194 56.1883 250.344 56.1883H247.643C247.498 58.5325 247.436 63.1699 247.458 70.1274H263.693C263.961 70.932 264.095 71.7796 264.095 72.6701C264.095 73.2548 263.988 73.641 263.784 73.8368C263.577 74.0246 263.175 74.1318 262.574 74.1318H247.425C247.441 83.0714 247.525 88.5403 247.643 90.5466H251.988C258.591 90.5466 263.773 89.8224 267.539 88.3767C268.196 89.5113 268.534 90.6968 268.534 91.9145C268.534 92.8264 268.231 93.4916 267.633 93.9207C267.029 94.3391 265.811 94.5537 263.969 94.5537L237.024 94.5859C236.756 93.8858 236.616 93.2207 236.616 92.5957C236.616 92.1854 236.724 91.8796 236.946 91.6918C237.169 91.4853 237.523 91.3861 238.016 91.3861H240.318C240.463 88.4921 240.532 81.1054 240.532 69.2316C240.532 62.8749 240.463 58.2616 240.318 55.3836H237.024C236.756 54.6755 236.616 54.0184 236.616 53.4257C236.616 52.9885 236.724 52.6773 236.946 52.4789C237.169 52.2804 237.523 52.1838 238.016 52.1838"></path>
<path fill="#C1842D" d="M294.915 51.7118C297.254 51.7118 298.579 51.803 298.882 51.9746C299.199 52.157 301.283 57.9371 305.159 69.3281C309.032 80.7273 311.647 88.0629 313.012 91.3593H315.742C315.989 91.9762 316.121 92.577 316.121 93.151C316.121 93.6686 316.013 94.0307 315.807 94.2372C315.6 94.4518 315.238 94.551 314.72 94.551H301.835C301.559 93.851 301.428 93.2019 301.428 92.5931C301.428 92.1639 301.538 91.8447 301.758 91.6463C301.972 91.4505 302.326 91.3593 302.828 91.3593H304.507C304.113 89.5086 303.12 85.9735 301.519 80.7433H287.523C286.075 85.9333 285.203 89.4684 284.916 91.3593H287.808C288.055 91.9762 288.175 92.577 288.175 93.151C288.175 93.6686 288.076 94.0307 287.872 94.2372C287.658 94.4518 287.295 94.551 286.778 94.551H275.355C275.108 93.851 274.984 93.2019 274.984 92.5931C274.984 92.1639 275.1 91.8447 275.314 91.6463C275.532 91.4505 275.891 91.3593 276.385 91.3593H278.182C279.552 87.5935 281.821 80.7836 284.986 70.9481C288.154 61.1047 290.106 55.4373 290.852 53.9487C291.6 52.4601 292.958 51.7118 294.918 51.7118M288.618 76.7389H300.323C296.554 64.7577 294.529 58.7605 294.25 58.7605C293.971 58.7605 292.097 64.7551 288.62 76.7389"></path>
<path fill="#C1842D" d="M324.929 52.1812H337.47C345.812 52.1812 351.576 53.6778 354.757 56.663C357.949 59.6563 359.539 64.5753 359.539 71.4255C359.539 79.1072 357.924 84.8792 354.7 88.7522C351.468 92.6172 346.147 94.551 338.712 94.551L323.942 94.5832C323.671 93.8832 323.531 93.218 323.531 92.5931C323.531 92.18 323.644 91.8769 323.861 91.6865C324.073 91.48 324.427 91.3834 324.929 91.3834H327.225C327.372 88.4894 327.444 81.1027 327.444 69.2262C327.444 62.8695 327.369 58.2562 327.225 55.3783H323.942C323.671 54.6702 323.531 54.0211 323.531 53.4203C323.531 52.9831 323.644 52.672 323.861 52.4735C324.073 52.275 324.427 52.1785 324.929 52.1785M338.589 56.7086C337.012 56.7086 335.668 56.8159 334.549 57.0197C334.405 60.1444 334.332 67.8261 334.332 80.0567C334.332 85.1876 334.6 88.1246 335.142 88.881C335.679 89.6373 337.551 90.0155 340.759 90.0155C344.506 90.0155 347.306 88.8729 349.156 86.585C351.01 84.2999 351.938 80.0379 351.938 73.8127C351.938 67.5874 350.86 62.9661 348.69 60.4663C346.525 57.9585 343.162 56.7086 338.592 56.7086"></path>
<path fill="#C1842D" d="M386.205 51.5616C390.7 51.5616 393.809 51.8244 395.544 52.3501C397.288 52.8758 398.157 53.8977 398.157 55.4024C398.157 56.7918 397.601 58.0256 396.483 59.1038C392.138 57.1217 388.093 56.1185 384.368 56.1185C381.75 56.1185 379.891 56.6469 378.8 57.6903C377.713 58.7363 377.166 60.182 377.166 62.0166C377.166 63.9477 377.821 65.4792 379.111 66.6138C380.401 67.7564 382.86 68.8909 386.487 70.0282C390.767 71.3102 394.007 72.7908 396.215 74.4617C398.411 76.122 399.583 78.8202 399.702 82.5377C399.702 86.7004 398.28 89.8492 395.434 91.9788C392.594 94.1085 388.238 95.1786 382.383 95.1786C378.309 95.1786 375.211 94.8836 373.097 94.3069C370.992 93.7249 369.935 92.6547 369.935 91.083C369.935 89.6507 370.53 88.3848 371.732 87.2985C375.836 89.5274 380.095 90.6378 384.529 90.6378C387.567 90.6378 389.729 90.1443 391.014 89.1492C392.296 88.1622 392.934 86.6253 392.934 84.56C392.934 82.0764 392.014 80.2096 390.164 78.9678C388.31 77.7259 385.352 76.468 381.297 75.1859C377.365 73.9843 374.57 72.4796 372.899 70.6719C371.239 68.8614 370.402 66.485 370.402 63.54C370.402 59.8816 371.762 56.9688 374.481 54.807C377.198 52.6452 381.106 51.5669 386.2 51.5669"></path>
<path fill="#C1842D" d="M457.684 55.3783H454.176C453.908 54.6702 453.768 54.0211 453.768 53.4203C453.768 52.9831 453.884 52.672 454.101 52.4735C454.313 52.275 454.672 52.1785 455.166 52.1785H467.149C467.402 52.7954 467.52 53.4042 467.52 53.9782C467.52 54.4958 467.42 54.8579 467.214 55.0645C467.007 55.271 466.645 55.3783 466.128 55.3783H463.923C463.816 58.2562 463.775 65.2057 463.791 76.2427C463.791 83.6695 462.359 88.6771 459.484 91.2761C456.609 93.8751 452.28 95.176 446.505 95.176C441.562 95.176 438.083 94.2292 436.082 92.3463C434.071 90.4607 433.067 86.746 433.067 81.21C433.067 66.8605 432.984 58.2562 432.821 55.3783H430.09C429.835 54.6702 429.712 54.0211 429.712 53.4203C429.712 52.9831 429.822 52.672 430.039 52.4735C430.254 52.275 430.616 52.1785 431.109 52.1785H443.217C443.488 52.7954 443.624 53.4042 443.624 53.9782C443.624 54.4958 443.522 54.8579 443.308 55.0645C443.101 55.271 442.731 55.3783 442.198 55.3783H440.178C440.009 58.7739 439.928 65.7582 439.928 76.3339C439.928 82.2882 440.679 86.1613 442.181 87.9556C443.683 89.7473 445.891 90.6431 448.806 90.6431C452.223 90.6431 454.584 89.7392 455.887 87.9368C457.191 86.1344 457.84 82.7469 457.84 77.7554C457.84 66.2329 457.791 58.7739 457.684 55.3783Z"></path>
<path fill="#C1842D" d="M480.402 55.3783H476.805C476.558 54.6702 476.435 54.0211 476.435 53.4203C476.435 52.9831 476.542 52.672 476.757 52.4735C476.98 52.275 477.334 52.1785 477.833 52.1785H490.243C498.008 52.1785 503.219 53.1306 505.907 55.0323C508.589 56.9393 509.922 60.0559 509.922 64.3742C509.922 68.6924 508.318 72.3509 505.11 74.8426C501.91 77.3182 496.57 78.5601 489.092 78.5601H487.512C487.555 84.9328 487.636 89.2028 487.765 91.3485H492.515C492.761 91.9735 492.885 92.5743 492.885 93.1483C492.885 93.6659 492.783 94.028 492.571 94.2345C492.367 94.4491 492.005 94.5483 491.49 94.5483H476.588C476.312 93.8483 476.18 93.1912 476.18 92.5904C476.18 92.1612 476.29 91.842 476.51 91.6436C476.725 91.4558 477.087 91.3485 477.58 91.3485H480.405C480.574 88.4786 480.657 81.1001 480.657 69.2262C480.657 62.8695 480.574 58.2482 480.405 55.3783M490.031 74.6549C494.58 74.6549 497.769 74.0058 499.59 72.6969C501.409 71.3907 502.323 69.186 502.323 66.0827C502.323 62.9795 501.46 60.8043 499.74 59.1574C498.029 57.5213 495.213 56.7059 491.297 56.7059C489.996 56.7059 488.813 56.8132 487.765 57.0171C487.596 58.7926 487.512 62.9795 487.512 69.591V74.6495H490.031V74.6549Z"></path>
<path fill="#C1842D" d="M539.895 52.1812H566.467C567.652 52.1812 568.457 52.3448 568.891 52.6747C569.318 53.0126 569.54 53.6697 569.54 54.6648C569.54 55.9227 569.143 57.2316 568.363 58.5808C564.447 56.9849 559.072 56.1883 552.219 56.1883H549.521C549.371 58.5325 549.306 63.4837 549.306 71.0581H564.635C564.898 71.8627 565.037 72.7103 565.037 73.5981C565.037 74.1828 564.93 74.569 564.723 74.7675C564.517 74.966 564.114 75.0625 563.514 75.0625H549.304C549.32 83.5408 549.395 88.9775 549.518 91.3539H554.518C554.756 91.9788 554.88 92.5796 554.88 93.1644C554.88 93.674 554.781 94.036 554.577 94.2426C554.37 94.4571 554.008 94.5564 553.49 94.5564H538.9C538.629 93.8483 538.489 93.2073 538.489 92.5984C538.489 92.1693 538.605 91.8501 538.827 91.6516C539.034 91.4558 539.404 91.3566 539.887 91.3566H542.191C542.33 88.4867 542.405 81.1081 542.405 69.2342C542.405 62.8776 542.33 58.2643 542.191 55.3863H538.9C538.629 54.6782 538.489 54.0211 538.489 53.4283C538.489 52.9912 538.605 52.68 538.827 52.4816C539.034 52.2831 539.404 52.1865 539.887 52.1865"></path>
<path fill="#C1842D" d="M576.313 75.4622C576.313 67.3111 578 61.2844 581.388 57.3926C584.775 53.5035 589.544 51.5616 595.705 51.5616C601.34 51.5616 605.623 52.9697 608.56 55.7967C611.503 58.6183 612.97 63.7814 612.97 71.2673C612.97 79.4264 611.275 85.4451 607.895 89.3343C604.516 93.226 599.736 95.1733 593.57 95.1733C587.937 95.1733 583.659 93.7652 580.722 90.9462C577.777 88.1326 576.316 82.9695 576.316 75.4595M583.925 72.6057C583.925 79.5149 584.861 84.2516 586.728 86.8023C588.602 89.3584 591.373 90.6431 595.058 90.6431C598.481 90.6431 601.048 89.3423 602.78 86.7621C604.499 84.1711 605.371 79.9602 605.371 74.1292C605.371 67.1288 604.427 62.376 602.56 59.8601C600.691 57.3443 597.904 56.0944 594.23 56.0944C590.807 56.0944 588.24 57.3845 586.516 59.9674C584.788 62.5584 583.925 66.7774 583.925 72.6084"></path>
<path fill="#C1842D" d="M635.009 91.3512H639.448C639.687 91.9761 639.818 92.5769 639.818 93.1509C639.818 93.6686 639.711 94.0307 639.507 94.2372C639.303 94.4518 638.941 94.551 638.421 94.551H623.832C623.57 93.851 623.43 93.1938 623.43 92.593C623.43 92.1639 623.537 91.8447 623.757 91.6462C623.972 91.4585 624.326 91.3512 624.819 91.3512H627.649C627.813 88.4813 627.896 81.1027 627.896 69.2289C627.896 62.8722 627.813 58.2589 627.649 55.3809H624.047C623.8 54.6729 623.677 54.0238 623.677 53.423C623.677 52.9858 623.784 52.6747 624.007 52.4762C624.221 52.2777 624.583 52.1731 625.069 52.1731H638.45C644.767 52.1731 649.256 53.0528 651.931 54.7882C654.602 56.5235 655.927 59.2701 655.927 63.0116C655.927 68.7514 652.497 72.6593 645.622 74.746C647.596 75.3468 649.181 76.4492 650.41 78.0531C651.628 79.6571 652.918 81.953 654.267 84.9275C655.624 87.9127 656.694 89.7392 657.475 90.4044C658.247 91.0776 659.349 91.3995 660.771 91.3512C661.208 92.8478 661.157 93.851 660.615 94.3767C660.079 94.9104 658.749 95.1733 656.608 95.1733C654.149 95.1733 652.381 94.8514 651.303 94.2104C650.233 93.5693 649.106 91.2842 647.94 87.3602C646.77 83.4469 645.531 80.6816 644.222 79.0884C642.924 77.5006 641.038 76.704 638.582 76.704C637.291 76.704 636.023 76.8113 634.757 77.0071C634.797 84.155 634.888 88.9319 635.012 91.3512M634.757 72.7881H637.372C640.966 72.7881 643.696 72.1631 645.547 70.8972C647.398 69.6392 648.326 67.7537 648.326 65.2486C648.326 62.3116 647.489 60.1578 645.81 58.7765C644.139 57.4033 641.738 56.714 638.614 56.714C637.181 56.714 635.983 56.8213 635.012 57.0251C634.848 58.8007 634.757 62.9956 634.757 69.599V72.7908V72.7881Z"></path>
<path fill="#C1842D" d="M700.99 91.3512C701.156 88.4813 701.245 81.1027 701.245 69.2289C701.245 62.8722 701.153 58.5298 700.99 56.1856C693.646 56.4967 689.491 56.655 688.547 56.655C687.603 56.655 687.008 56.5075 686.656 56.2205C686.302 55.9254 686.123 55.381 686.123 54.5763C686.123 53.4176 686.412 52.149 686.994 50.7838C690.513 51.7118 695.612 52.1838 702.299 52.1838H721.701C722.605 52.1838 723.249 52.3314 723.608 52.6344C723.97 52.9295 724.15 53.4739 724.15 54.2625C724.15 55.7189 723.724 57.0841 722.884 58.3903C719.421 56.9178 714.932 56.1856 709.404 56.1856H708.35C708.178 58.5298 708.103 62.9956 708.103 69.591C708.103 81.2288 708.178 88.4813 708.35 91.3512H712.783C713.038 91.9762 713.161 92.577 713.161 93.1509C713.161 93.6686 713.062 94.0307 712.847 94.2453C712.644 94.4518 712.282 94.5483 711.761 94.5483H696.553C696.275 93.8483 696.143 93.1912 696.143 92.5904C696.143 92.1612 696.25 91.842 696.47 91.6436C696.685 91.4558 697.047 91.3485 697.549 91.3485H700.987L700.99 91.3512Z"></path>
<path fill="#C1842D" d="M743.706 51.7118C746.042 51.7118 747.364 51.803 747.67 51.9746C747.992 52.157 750.078 57.9371 753.946 69.3281C757.819 80.7273 760.434 88.0629 761.799 91.3593H764.53C764.785 91.9762 764.908 92.577 764.908 93.151C764.908 93.6686 764.801 94.0307 764.589 94.2372C764.39 94.4518 764.02 94.551 763.511 94.551H750.623C750.36 93.851 750.229 93.2019 750.229 92.5931C750.229 92.1639 750.328 91.8447 750.55 91.6463C750.765 91.4505 751.124 91.3593 751.618 91.3593H753.289C752.903 89.5086 751.908 85.9735 750.312 80.7433H736.314C734.865 85.9333 734.002 89.4684 733.707 91.3593H736.593C736.847 91.9762 736.963 92.577 736.963 93.151C736.963 93.6686 736.863 94.0307 736.657 94.2372C736.445 94.4518 736.091 94.551 735.563 94.551H724.147C723.901 93.851 723.769 93.2019 723.769 92.5931C723.769 92.1639 723.884 91.8447 724.099 91.6463C724.314 91.4505 724.676 91.3593 725.169 91.3593H726.972C728.337 87.5935 730.598 80.7836 733.766 70.9481C736.939 61.1047 738.888 55.4373 739.637 53.9487C740.385 52.4601 741.734 51.7118 743.708 51.7118M737.408 76.7389H749.102C745.336 64.7577 743.322 58.7605 743.04 58.7605C742.759 58.7605 740.879 64.7551 737.405 76.7389"></path>
<path fill="#C1842D" d="M773.716 52.1812H787.722C787.961 52.798 788.092 53.4069 788.092 53.9809C788.092 54.4985 787.985 54.8606 787.781 55.0671C787.575 55.271 787.215 55.381 786.695 55.381H783.873C783.726 58.2589 783.651 62.9956 783.651 69.591C783.651 81.2288 783.734 88.4813 783.897 91.3512H787.722C787.961 91.9762 788.092 92.577 788.092 93.1617C788.092 93.6713 787.985 94.0334 787.781 94.2399C787.575 94.4545 787.215 94.5537 786.695 94.5537H772.721C772.458 93.8456 772.327 93.2046 772.327 92.5957C772.327 92.1666 772.434 91.8474 772.646 91.6489C772.868 91.4531 773.223 91.3539 773.716 91.3539H776.538C776.712 88.484 776.792 81.1054 776.792 69.2316C776.766 62.8749 776.685 58.2616 776.538 55.3836H772.721C772.458 54.6755 772.327 54.0184 772.327 53.4257C772.327 52.9885 772.434 52.6773 772.646 52.4789C772.868 52.2804 773.223 52.1838 773.716 52.1838"></path>
<path fill="#C1842D" d="M864.939 3.68794H186.181V6.39155H864.939V3.68794Z"></path>
<path fill="#C1842D" d="M864.939 139.579H692.423V142.283H864.939V139.579Z"></path>
<path fill="#C1842D" d="M358.708 139.579H186.181V142.283H358.708V139.579Z"></path>
<path fill="#C1842D" d="M23.4017 68.4081L23.383 68.3947C23.3454 68.3491 23.3213 68.3035 23.2891 68.2633C22.8975 67.7161 22.5595 67.1314 22.3235 66.4985C22.0419 65.7582 21.8944 65.0072 22.1062 64.2213C22.1438 64.0792 22.1974 63.9397 22.2404 63.8002C22.3047 63.6902 22.3691 63.583 22.4335 63.473C22.4522 63.4596 22.4844 63.4435 22.4978 63.4274C22.9753 62.8507 23.7316 62.6228 24.4183 62.8507C25.1317 63.0894 25.6011 63.7144 25.6306 64.4734C25.6306 64.519 25.636 64.5619 25.6413 64.6183C25.7111 64.5834 25.7727 64.5512 25.8317 64.5217C26.5237 64.1918 27.3525 64.3474 27.8809 64.9053C28.4012 65.4605 28.4978 66.3107 28.1169 66.9705C27.7441 67.6115 27.1621 67.9736 26.4781 68.1909C25.5287 68.4967 24.5524 68.5074 23.568 68.4081C23.5171 68.4001 23.4607 68.4081 23.4071 68.4081"></path>
<path fill="#C1842D" d="M27.8862 57.6903C27.8862 57.6903 28.5862 59.5732 29.1978 62.0354C33.6099 61.7055 53.4953 59.5007 62.4403 46.6264C62.0138 45.4543 61.641 44.2876 61.3755 43.2067H61.3728C60.544 32.1697 58.5673 25.7218 58.3768 25.1129C63.0035 10.4952 54.992 0 54.992 0L49.7779 13.4966C49.2763 13.1023 48.992 12.9279 48.992 12.9279C46.7068 10.9351 43.6277 9.84884 43.1825 9.69864C43.1449 9.68791 43.1101 9.67718 43.0698 9.66646C42.1445 9.44652 41.2299 9.19708 40.3019 8.98251C32.9581 7.27398 26.7838 9.12466 22.0686 15.0978C20.6149 16.9378 18.2546 20.0571 17.3105 22.1653C15.8675 25.4053 13.9793 27.0924 10.7956 26.9019C9.12996 26.8027 6.06963 27.3391 4.42011 27.4571C1.05401 27.6932 -0.402393 29.8684 0.0938043 33.1352C1.04328 39.3069 1.83184 41.2353 7.91763 44.0543C9.3043 44.698 15.5832 46.7123 17.0021 47.2755C22.8786 49.5929 26.0677 52.4762 27.9559 57.6045L27.8862 57.6903Z"></path>
<path fill="#C1842D" d="M144.514 96.7155C148.009 91.3941 148.248 85.8287 146.139 79.995C145.109 77.152 143.784 74.2928 142.816 71.5168C149.267 63.5508 150.157 55.6277 146.322 49.3086C146.054 48.8741 145.378 49.0779 145.386 49.5875C145.41 51.4248 145.981 55.153 145.871 56.7837C145.472 62.8239 141.435 68.8614 135.628 67.3273C125.398 64.621 114.482 63.583 104.008 64.8865C96.8577 65.777 89.7929 65.5597 82.7362 64.6692C75.7787 63.7868 69.8163 61.2522 66.1015 55.4319C65.7314 54.7051 64.2508 51.7413 62.9688 48.4879C57.5562 55.7082 48.9143 59.4578 42.3886 61.3514C36.6167 63.0251 31.6198 63.5588 29.4607 63.7251C29.6163 64.4788 29.7611 65.2674 29.8603 66.0532C30.3538 71.5972 30.7401 76.8381 31.2926 82.0576C32.1992 90.5493 36.3404 97.1205 43.5527 101.817C45.5643 103.126 47.533 104.513 49.4507 105.953C52.0068 107.879 53.7368 109.764 56.089 111.921C61.6062 116.99 63.5937 123.373 62.9205 130.771C62.6496 133.783 62.1239 135.65 59.4605 136.808C57.9773 137.455 56.4645 138.053 55.0376 138.809H55.0296C54.2196 139.026 51.1405 140.762 49.4936 144.114C49.2335 144.637 49.609 146.086 50.1883 146.086H60.6219C61.0591 146.086 64.5807 142.427 64.5807 141.996L64.5754 141.99C64.8167 141.717 65.0555 141.427 65.2861 141.116C70.2856 134.37 70.7765 121.796 66.3107 114.622C64.4278 111.593 63.4784 108.329 63.5052 104.746C63.5347 100.731 64.8704 97.1447 66.7747 93.6874C68.848 89.9297 68.7649 89.5006 64.9374 87.8296C62.7998 86.8908 61.5928 85.4478 61.1851 83.2351C60.9142 81.7679 60.6755 80.2981 60.418 78.8122C62.5101 77.7447 64.8194 77.211 66.0774 75.768C67.9441 73.6276 70.0443 73.0268 72.6352 72.7613C75.6741 72.4475 75.8162 72.0934 76.3258 68.8722C76.4358 68.1534 76.881 67.4882 77.5409 65.9299C78.6459 68.0648 79.3647 69.4783 80.1023 70.8811C81.3227 73.2011 82.2105 75.8002 83.86 77.7608C86.1398 80.4725 87.6338 83.4443 87.4916 86.8265C87.3307 90.6887 89.3584 92.1344 92.5099 93.3897C97.1554 95.243 101.809 97.1983 106.149 99.6605C115.837 105.162 123.513 112.642 127.608 123.266C129.478 128.102 129.113 132.863 126.694 137.35C125.382 139.788 124.242 142.781 120.179 141.628C118.736 141.218 117.631 142.781 117.483 144.243C117.322 145.852 118.709 146.319 119.988 146.413C121.222 146.504 122.528 146.485 123.714 146.166C125.38 145.718 126.831 145.683 128.561 146.244C133.579 147.869 138.46 145.584 140.676 140.802C142.309 137.275 143.288 133.477 145.3 130.197C148.087 125.659 148.087 121.775 144.53 117.725C143.184 116.191 142.392 114.246 141.572 112.35C140.134 109.027 140.11 105.572 141.591 102.235C142.43 100.334 143.374 98.4562 144.514 96.7182V96.7155ZM139.7 129.73C139.574 133.842 138.034 137.586 136.022 141.094C134.987 142.905 133.399 142.832 130.199 141.279C132.101 135.719 134 130.159 135.899 124.594C138.978 125.664 139.796 126.565 139.7 129.73Z"></path>
<path fill="#C1842D" d="M391.145 128.14H407.354V131.608H394.973V137.519H405.954V140.987H394.973V149.809H391.148V128.142L391.145 128.14Z"></path>
<path fill="#C1842D" d="M416.937 139.037V138.975C416.937 132.879 421.666 127.769 428.355 127.769C435.044 127.769 439.708 132.815 439.708 138.914V138.975C439.708 145.075 434.98 150.181 428.29 150.181C421.601 150.181 416.937 145.136 416.937 139.037ZM435.696 139.037V138.975C435.696 134.767 432.617 131.267 428.293 131.267C423.969 131.267 420.952 134.703 420.952 138.914V138.975C420.952 143.186 424.031 146.684 428.355 146.684C432.678 146.684 435.696 143.248 435.696 139.037Z"></path>
<path fill="#C1842D" d="M450.694 128.14H460.401C463.14 128.14 465.285 128.944 466.685 130.307C467.836 131.484 468.49 133.093 468.49 134.982V135.043C468.49 138.603 466.345 140.74 463.295 141.607L469.174 149.809H464.663L459.312 142.256H454.522V149.809H450.694V128.142V128.14ZM460.119 138.879C462.858 138.879 464.599 137.455 464.599 135.258V135.196C464.599 132.874 462.92 131.605 460.087 131.605H454.519V138.879H460.119Z"></path>
<path fill="#C1842D" d="M500.486 128.14H516.694V131.608H504.313V137.519H515.294V140.987H504.313V149.809H500.488V128.142L500.486 128.14Z"></path>
<path fill="#C1842D" d="M534.959 127.987H538.505L548.086 149.809H544.041L541.831 144.578H531.534L529.295 149.809H525.376L534.957 127.987H534.959ZM540.434 141.204L536.671 132.538L532.937 141.204H540.434Z"></path>
<path fill="#C1842D" d="M558.168 128.14H562.245L568.87 138.385L575.497 128.14H579.574V149.806H575.747V134.268L568.872 144.482H568.749L561.936 134.33V149.806H558.173V128.14H558.168Z"></path>
<path fill="#C1842D" d="M595.839 128.14H599.663V149.806H595.839V128.14Z"></path>
<path fill="#C1842D" d="M615.936 128.14H619.763V146.341H631.211V149.809H615.936V128.142V128.14Z"></path>
<path fill="#C1842D" d="M647.95 141.263L639.303 128.14H643.814L649.911 137.736L656.069 128.14H660.454L651.807 141.169V149.806H647.95V141.263Z"></path>
<path fill="#C1842D" d="M883.193 6.74292H879.382V4.38531H889.638V6.74292H885.827V16.5676H883.191V6.74292H883.193Z"></path>
<path fill="#C1842D" d="M894.179 4.38531H896.797L900.59 11.265L904.366 4.38531H907.003V16.5676H904.366V8.97983L900.59 15.8595L896.797 8.97983V16.5676H894.179V4.38531Z"></path>
</g>
<defs>
<clipPath id="clip0_101_18">
<rect fill="white" height="150.179" width="907"></rect>
</clipPath>
</defs>
</svg>
