<svg width="318" height="98" viewBox="0 0 318 98" fill="none" xmlns="http://www.w3.org/2000/svg">
<g clip-path="url(#clip0_4905_32807)">
<path d="M2.35938 100.392C4.08487 99.5606 5.57237 78.722 6.70287 67.7981C8.42837 50.7591 10.3919 41.1412 24.1364 39.4195C40.9749 37.2822 38.0594 51.5902 42.6409 53.1338C47.2224 54.6774 54.6599 54.2619 53.1724 60.2582C50.1379 72.4289 40.9749 71.4196 40.4394 75.5161C39.9039 79.5532 44.1879 96.236 45.7944 99.4419" fill="white"/>
<path d="M2.18303 100.036C2.18303 100.036 2.30203 99.9169 2.36153 99.7388C2.42103 99.5607 2.48053 99.3825 2.54003 99.2044C2.65903 98.8482 2.77803 98.4326 2.83753 98.0764C3.01603 97.3046 3.13503 96.5328 3.25403 95.7017C3.49203 94.0987 3.73003 92.4957 3.90853 90.8927C4.26553 87.6868 4.56303 84.4809 4.86053 81.2749C5.45553 74.863 5.93153 68.3918 6.70503 61.9205C7.12153 58.7146 7.59753 55.4493 8.49003 52.3027C8.96603 50.6997 9.50153 49.1561 10.2155 47.6719C10.989 46.1877 11.941 44.7628 13.0715 43.5754C14.2615 42.388 15.6895 41.3787 17.177 40.6663C18.724 39.9539 20.3305 39.4789 21.937 39.1227C23.5435 38.8259 25.2095 38.5884 26.8755 38.5884C28.5415 38.5884 30.2075 38.7071 31.8735 39.2414C33.48 39.7164 35.027 40.6069 36.2765 41.7943C37.526 42.9817 38.359 44.4659 39.073 46.0095C39.7275 47.4938 40.263 49.0967 40.858 50.5216C41.1555 51.234 41.572 51.8871 42.048 52.3027C42.167 52.4214 42.286 52.4808 42.4645 52.5402C42.524 52.5995 42.5835 52.5995 42.7025 52.5995L43 52.6589C43.357 52.7776 43.7735 52.8964 44.1305 52.9557C45.6775 53.312 47.284 53.6088 48.8905 54.0244C49.664 54.2619 50.497 54.4994 51.2705 54.9149C52.044 55.3305 52.8175 55.9242 53.234 56.7554C53.71 57.5866 53.7695 58.5365 53.6505 59.427C53.5315 60.3175 53.2935 61.0893 53.0555 61.8611C52.52 63.4641 51.8655 64.9484 50.973 66.3732C50.0805 67.7981 48.95 69.0448 47.641 70.0541C46.332 71.1228 44.904 71.9539 43.476 72.7257C42.1075 73.4975 40.6795 74.3881 40.6795 75.8129C40.62 77.3565 40.858 78.9595 41.096 80.5625C41.6315 83.7091 42.286 86.915 43.0595 90.0022C43.476 91.5458 43.8925 93.1488 44.309 94.6924C44.785 96.236 45.2015 97.7796 45.856 99.2044C45.9155 99.3825 45.856 99.5607 45.6775 99.62C45.499 99.6794 45.3205 99.62 45.261 99.4419C44.547 97.8983 44.071 96.3547 43.595 94.8111C43.119 93.2675 42.7025 91.7239 42.286 90.1209C41.453 86.9744 40.739 83.8278 40.144 80.6219C39.906 79.0189 39.6085 77.4159 39.668 75.6942C39.668 75.2786 39.787 74.7443 39.9655 74.3287C40.144 73.9131 40.501 73.5569 40.7985 73.2007C41.453 72.607 42.167 72.1914 42.881 71.7758C44.309 70.9446 45.6775 70.1729 46.8675 69.1636C48.0575 68.1543 49.1285 66.9669 49.9615 65.6608C50.7945 64.3547 51.449 62.8704 51.925 61.3862C52.163 60.6144 52.401 59.8426 52.4605 59.1302C52.5795 58.4177 52.4605 57.7053 52.1035 57.1116C51.806 56.5179 51.211 56.043 50.5565 55.7461C49.902 55.3899 49.1285 55.1524 48.4145 54.9743C46.8675 54.5587 45.261 54.3212 43.6545 53.965C43.238 53.8463 42.8215 53.7869 42.4645 53.6682L42.167 53.5494C42.048 53.4901 41.929 53.4901 41.81 53.4307C41.572 53.312 41.3935 53.1932 41.1555 53.0745C40.382 52.4808 39.9655 51.6496 39.6085 50.8778C38.8945 49.3342 38.4185 47.7906 37.764 46.3658C37.1095 44.9409 36.2765 43.5754 35.2055 42.5067C34.1345 41.4381 32.766 40.6663 31.2785 40.2507C28.3035 39.3602 25.031 39.5977 21.937 40.1913C20.39 40.4882 18.9025 40.9631 17.4745 41.6162C16.0465 42.2693 14.797 43.1598 13.726 44.2878C12.655 45.4158 11.7625 46.6626 11.0485 48.0875C10.3345 49.5123 9.79903 50.9966 9.38253 52.5402C8.49003 55.6274 8.01403 58.7739 7.59753 61.9799C6.76453 68.3918 6.28853 74.8037 5.63403 81.2749C5.33653 84.4809 4.97953 87.6868 4.56303 90.9521C4.38453 92.5551 4.14653 94.1581 3.84903 95.761C3.73003 96.5922 3.55153 97.364 3.37303 98.1952C3.25403 98.6107 3.19453 99.0263 3.01603 99.3825C2.95653 99.5607 2.89703 99.7981 2.77803 99.9762C2.65903 100.154 2.59953 100.392 2.24253 100.629C2.06403 100.748 1.82603 100.629 1.70703 100.451C1.88553 100.392 1.94503 100.154 2.18303 100.036Z" fill="black"/>
<path d="M23.8466 48.7404C23.8466 48.7404 19.9196 71.3007 17.0041 73.9724C14.0886 76.644 -0.607904 79.9093 0.641597 73.3787C1.8911 66.848 11.2326 43.694 18.0156 44.2283" fill="white"/>
<path d="M24.322 48.8591C23.727 52.1838 23.132 55.5085 22.418 58.7738C21.704 62.0985 20.9305 65.3638 19.919 68.6291C19.681 69.4603 19.3835 70.2321 19.086 71.0632C18.7885 71.8944 18.491 72.6662 18.015 73.438C17.896 73.6161 17.777 73.8536 17.658 74.0317C17.4795 74.2098 17.301 74.4473 17.1225 74.566C16.7655 74.8629 16.349 75.1003 15.992 75.3378C15.2185 75.7534 14.3855 76.1096 13.612 76.3471C12.0055 76.8814 10.28 77.297 8.61398 77.5345C6.88848 77.772 5.16297 77.8907 3.37797 77.5345C2.48547 77.3564 1.59297 77.0002 0.878971 76.2877C0.700471 76.1096 0.581469 75.8722 0.402969 75.694C0.283969 75.4566 0.16497 75.2191 0.16497 74.9816L0.105469 74.6254V74.2692C0.105469 74.0317 0.10547 73.7942 0.16497 73.5567C0.46247 71.835 0.99797 70.2321 1.53347 68.6291C2.60447 65.4231 3.91347 62.2766 5.34147 59.2487C6.76948 56.1615 8.31647 53.1931 10.2205 50.3433C11.1725 48.9185 12.184 47.553 13.4335 46.3656C14.0285 45.7719 14.7425 45.1782 15.4565 44.7626C16.23 44.347 17.1225 43.9908 18.015 44.0502C18.1935 44.0502 18.3125 44.2283 18.3125 44.4064C18.3125 44.5845 18.134 44.7033 18.015 44.7033C17.2415 44.6439 16.468 44.9407 15.8135 45.3563C15.0995 45.7719 14.5045 46.3062 13.9095 46.8999C12.779 48.0873 11.7675 49.4528 10.8155 50.8183C8.97098 53.6087 7.48347 56.6365 6.05547 59.6643C4.68697 62.6922 3.43747 65.8387 2.36647 68.9853C1.83097 70.5883 1.35497 72.1913 1.05747 73.7942C0.938471 74.5067 1.05747 75.2785 1.59297 75.694C2.06897 76.169 2.78297 76.4658 3.55647 76.6439C5.10347 76.9408 6.76947 76.8221 8.43547 76.5846C10.042 76.3471 11.708 75.9315 13.255 75.3972C14.0285 75.1004 14.802 74.8035 15.516 74.4473C15.873 74.2692 16.23 74.0317 16.468 73.7942C16.6465 73.6755 16.706 73.5567 16.825 73.438C16.944 73.2599 17.063 73.1412 17.1225 72.9631C17.4795 72.31 17.8365 71.5382 18.134 70.7664C18.4315 69.9946 18.6695 69.2228 18.9075 68.3916C19.8595 65.1857 20.633 61.9204 21.347 58.6551C22.061 55.3897 22.7155 52.0651 23.37 48.7997C23.4295 48.5029 23.6675 48.3248 23.965 48.3842C24.203 48.3248 24.3815 48.5623 24.322 48.8591Z" fill="black"/>
<path d="M30.8641 52.7183C30.7451 52.5996 30.5666 52.4808 30.3881 52.4808C30.0906 52.3027 29.6146 52.3027 29.4361 52.7777C28.9601 53.8463 28.4246 55.4493 28.8411 56.6367C29.3171 57.8834 30.8641 57.5272 31.1021 56.3398C31.2211 55.6868 31.1616 54.9743 31.2211 54.3213C31.2806 53.7276 31.2806 53.1339 30.8641 52.7183Z" fill="black"/>
<path d="M51.9223 56.993C51.3868 56.518 50.1372 55.9837 49.4232 56.2806C48.5902 56.5774 48.4712 57.6461 48.6497 58.3585C48.8877 59.249 49.5422 60.0802 50.0777 60.7926C50.4347 61.2676 50.9703 61.4457 51.2083 61.0301C51.6248 60.7333 51.8628 59.9615 52.0413 59.4865C52.3388 58.7741 52.6363 57.5867 51.9223 56.993Z" fill="black"/>
<path d="M159.135 103.182C159.135 103.182 150.924 68.8076 142.891 63.9393C134.145 58.6555 127.124 68.4514 125.577 75.457C123.792 83.5312 120.281 104.726 120.281 104.726" fill="white"/>
<path d="M158.959 103.242C156.876 95.405 154.556 87.687 151.759 80.0877C150.331 76.3475 148.784 72.6072 146.761 69.1044C146.226 68.2732 145.69 67.3827 145.095 66.6109C144.5 65.8391 143.846 65.1267 143.072 64.533C141.466 63.4643 139.562 62.7519 137.658 62.8706C135.754 62.93 133.909 63.7612 132.362 65.0079C130.815 66.2547 129.566 67.7983 128.554 69.4606C127.543 71.1823 126.71 73.0228 126.234 74.9226C125.758 76.8818 125.401 78.841 124.984 80.8595C123.497 88.815 122.069 96.7705 120.7 104.726C120.641 104.904 120.522 105.023 120.343 104.963C120.165 104.963 120.046 104.785 120.105 104.607C121.414 96.5924 122.723 88.6369 124.211 80.6814C124.568 78.6629 124.984 76.7037 125.46 74.6851C125.996 72.6666 126.829 70.7667 127.9 68.9857C128.971 67.2046 130.28 65.6016 131.946 64.2361C133.552 62.93 135.575 61.9801 137.777 61.8614C138.848 61.802 139.919 61.9801 140.93 62.2769C141.942 62.6332 142.894 63.0487 143.786 63.6424C144.679 64.2955 145.393 65.0673 145.988 65.8985C146.642 66.7296 147.178 67.5608 147.713 68.4513C149.796 72.0135 151.343 75.7538 152.711 79.6128C154.139 83.4124 155.329 87.2714 156.46 91.1898C157.59 95.1082 158.602 99.0265 159.494 102.945C159.494 103.064 159.435 103.182 159.316 103.182C159.078 103.42 158.959 103.361 158.959 103.242Z" fill="black"/>
<path d="M124.454 46.3063C119.872 46.2469 114.339 56.6959 115.469 59.7237C116.54 62.7516 120.824 61.6236 121.836 60.6143" fill="white"/>
<path d="M124.449 46.4251C123.437 46.4845 122.545 47.0188 121.771 47.6125C120.998 48.2655 120.284 48.978 119.689 49.8091C119.034 50.5809 118.499 51.4715 118.023 52.362C117.487 53.2526 117.071 54.1431 116.714 55.093C116.357 56.0429 116 56.9928 115.881 57.9427C115.821 58.4177 115.762 58.8926 115.821 59.3082C115.881 59.427 115.881 59.4863 115.881 59.6051L116 59.9019C116.059 60.0207 116.119 60.08 116.178 60.1988C116.238 60.3175 116.297 60.3769 116.357 60.4363C116.952 61.0893 117.904 61.3862 118.915 61.3268C119.867 61.3268 120.938 61.0893 121.771 60.555C121.414 60.9706 120.938 61.2081 120.462 61.4455C119.986 61.683 119.451 61.8017 118.915 61.8611C118.38 61.9205 117.844 61.9205 117.249 61.8017C116.714 61.683 116.119 61.3862 115.702 60.9706C115.286 60.555 114.988 60.0207 114.869 59.427C114.75 58.8333 114.81 58.299 114.869 57.7053C115.048 56.6366 115.405 55.6273 115.762 54.6181C116.595 52.6589 117.666 50.8778 119.034 49.2154C119.748 48.4436 120.462 47.6718 121.355 47.0782C122.247 46.4845 123.259 46.0095 124.389 46.0689C124.449 46.0689 124.508 46.1282 124.508 46.1876C124.627 46.3657 124.568 46.4251 124.449 46.4251Z" fill="black"/>
<path d="M126.479 87.1525C124.813 87.1525 123.326 86.8557 122.255 86.3807C116.186 83.531 117.852 69.5792 119.161 58.4178C119.28 57.5272 119.399 56.6367 119.458 55.7462C120.708 44.8816 126.896 42.0319 129.99 42.0319C130.109 42.0319 130.168 42.0319 130.287 42.0319C130.585 42.0319 130.942 42.0912 131.358 42.0912C134.155 42.2693 139.45 42.5662 143.853 44.2879C150.993 47.0782 150.398 52.0653 149.744 57.8241C149.625 58.774 149.506 59.7833 149.446 60.8519C149.149 64.5328 146.055 70.0542 141.771 77.4753C136.654 86.2026 129.335 87.1525 126.479 87.1525Z" fill="white"/>
<path d="M129.988 42.388C130.107 42.388 130.166 42.388 130.226 42.388C132.487 42.5661 138.675 42.6849 143.732 44.644C151.765 47.7906 149.623 53.7869 149.087 60.7925C148.79 64.2953 145.993 69.4604 141.471 77.2378C137.128 84.7777 130.821 86.7369 126.477 86.7369C124.752 86.7369 123.324 86.44 122.431 86.0245C116.184 83.056 118.564 67.2044 119.873 55.8055C121.063 44.7628 127.489 42.388 129.988 42.388ZM129.988 41.6162C128.441 41.6162 126.061 42.3287 123.919 44.4066C121.241 46.9595 119.635 50.7591 119.04 55.6867C118.921 56.5179 118.861 57.4085 118.742 58.3584C117.374 70.2916 115.767 83.7684 122.074 86.7369C123.145 87.2712 124.752 87.5681 126.477 87.5681C129.452 87.5681 136.949 86.6182 142.126 77.6534C146.588 69.9354 149.563 64.6515 149.861 60.8519C149.92 59.8426 150.039 58.8333 150.158 57.8834C150.813 52.2433 151.408 46.8407 144.03 43.991C139.567 42.2099 134.212 41.9131 131.416 41.735C130.999 41.735 130.642 41.6756 130.345 41.6756C130.166 41.6162 130.107 41.6162 129.988 41.6162Z" fill="black"/>
<path d="M142.965 50.2839C143.143 50.6995 142.608 63.7608 147.368 66.373C152.128 68.9853 156.293 63.642 153.02 54.7366C150.343 47.4936 145.642 47.2561 145.642 47.2561" fill="white"/>
<path d="M143.143 50.1653C143.143 50.2247 143.203 50.284 143.203 50.3434V50.4621V50.6403V50.9965L143.262 51.7089L143.381 53.1338C143.441 54.0837 143.56 55.0336 143.679 55.9241C143.917 57.7646 144.214 59.6644 144.75 61.3861C145.047 62.2766 145.345 63.1078 145.821 63.8796C146.237 64.6514 146.773 65.3638 147.487 65.7794C148.201 66.195 149.034 66.4919 149.867 66.4325C150.7 66.3731 151.414 66.0169 152.009 65.4232C153.139 64.2358 153.556 62.3954 153.615 60.6143C153.615 58.8332 153.258 56.9928 152.663 55.2711C152.068 53.5493 151.295 51.8276 150.105 50.4028C149.51 49.6903 148.855 49.0373 148.141 48.5623C147.784 48.3249 147.368 48.0874 146.951 47.9093C146.535 47.7312 146.118 47.553 145.702 47.4937H145.642C145.523 47.4937 145.404 47.3156 145.404 47.1968C145.404 47.0781 145.523 46.9594 145.642 46.9594C146.654 47.0187 147.606 47.4343 148.439 47.9093C149.272 48.4436 150.045 49.0966 150.7 49.8091C152.009 51.2933 152.901 53.0744 153.615 54.8555C154.27 56.6959 154.746 58.5957 154.746 60.6143C154.746 61.6236 154.627 62.6329 154.329 63.5828C154.032 64.5327 153.556 65.542 152.782 66.3138C152.009 67.0856 150.938 67.5605 149.867 67.6199C149.331 67.6199 148.796 67.5605 148.26 67.3824C147.725 67.2043 147.308 67.0262 146.832 66.7293C145.88 66.1356 145.285 65.3045 144.809 64.4139C144.333 63.5234 144.036 62.5735 143.738 61.6829C143.262 59.7831 142.965 57.8833 142.846 55.9835C142.786 55.0336 142.727 54.0837 142.727 53.1338V51.7089V50.9965V50.6403V50.4621V50.4028L142.905 50.1653C142.965 50.1059 143.024 50.1059 143.084 50.1059C143.143 50.1653 143.143 50.1653 143.143 50.1653Z" fill="black"/>
<path d="M123.313 79.4346C122.48 79.3158 120.397 79.1377 120.338 80.3845C120.278 80.9782 120.695 81.6906 120.933 82.1656C121.111 82.5812 121.349 82.9374 121.587 83.2936C121.706 83.4717 121.766 83.6498 121.885 83.7685C122.182 84.1841 122.658 84.3029 123.075 83.9467C123.61 83.5311 124.146 83.0561 124.622 82.5218C124.979 82.1062 125.455 81.6906 125.574 81.0969C125.931 79.8502 124.324 79.6127 123.313 79.4346Z" fill="black"/>
<path d="M131.768 67.917C131.232 66.3734 132.363 63.6424 133.136 61.3864C133.553 60.2584 133.969 59.071 134.683 58.1211C135.278 57.3493 136.111 56.6962 137.063 56.6368C137.718 56.5775 138.372 56.815 138.967 57.1118C139.622 57.4086 140.336 57.8242 140.752 58.4179C141.109 58.8929 141.288 59.5459 141.407 60.1396C141.823 61.802 142.061 63.5831 141.764 65.2454C141.466 66.9671 140.514 68.5701 139.027 69.4606C137.896 70.0543 136.587 70.2324 135.338 69.9356C134.148 69.6387 132.125 69.1638 131.768 67.917Z" fill="#333333"/>
<path d="M123.61 62.2176C123.431 61.4458 123.074 60.4959 122.063 60.9709C121.468 61.2677 120.992 61.802 120.813 62.4551C120.694 62.8707 120.04 62.6926 120.159 62.277C120.456 61.3271 121.23 60.3772 122.301 60.1991C123.491 59.9616 123.967 61.0896 124.205 62.0395C124.324 62.4551 123.669 62.6332 123.61 62.2176Z" fill="black"/>
<path d="M122.191 60.3772C122.191 60.021 122.191 59.7242 122.132 59.4273C122.013 59.0118 122.667 58.8336 122.786 59.2492C122.905 59.6055 122.905 60.021 122.905 60.3772C122.846 60.7928 122.191 60.7928 122.191 60.3772Z" fill="black"/>
<path d="M120.637 61.3269C120.28 61.0894 119.923 60.8519 119.566 60.5551C119.447 60.4364 119.447 60.1989 119.566 60.0801C119.685 59.9614 119.923 59.9614 120.042 60.0801C120.339 60.3176 120.637 60.5551 120.994 60.7332C121.291 60.9707 120.994 61.5644 120.637 61.3269Z" fill="black"/>
<path d="M134.681 64.0579C134.978 63.286 135.454 62.4549 136.406 63.0486C137.001 63.4048 137.299 63.9985 137.418 64.7109C137.477 65.1265 138.132 65.0671 138.072 64.6515C137.894 63.6423 137.299 62.633 136.287 62.2768C135.157 61.9206 134.502 62.9298 134.086 63.8204C133.967 64.236 134.562 64.4734 134.681 64.0579Z" fill="black"/>
<path d="M136.349 62.4548C136.349 62.0986 136.468 61.8018 136.587 61.5049C136.765 61.0893 136.17 60.8519 135.992 61.2674C135.873 61.6237 135.754 61.9799 135.754 62.3955C135.694 62.7517 136.349 62.8704 136.349 62.4548Z" fill="black"/>
<path d="M137.78 63.6424C138.196 63.4643 138.553 63.2862 138.91 63.0487C139.089 62.93 139.089 62.6925 138.97 62.5738C138.851 62.3957 138.672 62.3957 138.494 62.5144C138.196 62.6925 137.839 62.8706 137.482 63.0487C137.185 63.1675 137.423 63.7612 137.78 63.6424Z" fill="black"/>
<path d="M318.014 103.182C318.014 103.182 309.803 68.8074 301.77 63.9391C293.024 58.6552 286.003 68.4511 284.456 75.4567C282.671 83.531 279.16 104.726 279.16 104.726" fill="white"/>
<path d="M317.838 103.242C315.755 95.4049 313.435 87.6869 310.638 80.0876C309.21 76.3473 307.663 72.6071 305.64 69.1043C305.105 68.2731 304.569 67.3826 303.974 66.6108C303.379 65.839 302.725 65.1265 301.951 64.5328C300.345 63.4642 298.441 62.7518 296.537 62.8705C294.633 62.9299 292.788 63.761 291.241 65.0078C289.694 66.2546 288.445 67.7982 287.433 69.4605C286.422 71.1822 285.589 73.0227 285.113 74.9225C284.637 76.8817 284.28 78.8409 283.863 80.8594C282.376 88.8149 280.948 96.7704 279.579 104.726C279.52 104.904 279.401 105.023 279.222 104.963C279.044 104.963 278.925 104.785 278.984 104.607C280.293 96.5923 281.602 88.6368 283.09 80.6813C283.447 78.6627 283.863 76.7036 284.339 74.685C284.875 72.6664 285.708 70.7666 286.779 68.9855C287.85 67.2045 289.159 65.6015 290.825 64.236C292.431 62.9299 294.454 61.98 296.656 61.8612C297.727 61.8019 298.798 61.98 299.809 62.2768C300.821 62.633 301.773 63.0486 302.665 63.6423C303.558 64.2954 304.272 65.0672 304.867 65.8983C305.521 66.7295 306.057 67.5607 306.592 68.4512C308.675 72.0134 310.222 75.7536 311.59 79.6126C313.018 83.4123 314.208 87.2713 315.339 91.1897C316.469 95.108 317.481 99.0264 318.373 102.945C318.373 103.064 318.314 103.182 318.195 103.182C317.957 103.42 317.838 103.36 317.838 103.242Z" fill="black"/>
<path d="M283.329 46.3063C278.747 46.2469 273.214 56.6959 274.344 59.7237C275.415 62.7516 279.699 61.6236 280.711 60.6143" fill="white"/>
<path d="M283.324 46.4251C282.312 46.4845 281.42 47.0188 280.646 47.6125C279.873 48.2655 279.159 48.978 278.564 49.8091C277.909 50.5809 277.374 51.4715 276.898 52.362C276.362 53.2526 275.946 54.1431 275.589 55.093C275.232 56.0429 274.875 56.9928 274.756 57.9427C274.696 58.4177 274.637 58.8926 274.696 59.3082C274.756 59.427 274.756 59.4863 274.756 59.6051L274.875 59.9019C274.934 60.0207 274.994 60.08 275.053 60.1988C275.113 60.3175 275.172 60.3769 275.232 60.4363C275.827 61.0893 276.779 61.3862 277.79 61.3268C278.742 61.3268 279.813 61.0893 280.646 60.555C280.289 60.9706 279.813 61.2081 279.337 61.4455C278.861 61.683 278.326 61.8017 277.79 61.8611C277.255 61.9205 276.719 61.9205 276.124 61.8017C275.589 61.683 274.994 61.3862 274.577 60.9706C274.161 60.555 273.863 60.0207 273.744 59.427C273.625 58.8333 273.685 58.299 273.744 57.7053C273.923 56.6366 274.28 55.6273 274.637 54.6181C275.47 52.6589 276.541 50.8778 277.909 49.2154C278.623 48.4436 279.337 47.6718 280.23 47.0782C281.122 46.4845 282.134 46.0095 283.264 46.0689C283.324 46.0689 283.383 46.1282 283.383 46.1876C283.502 46.3657 283.443 46.4251 283.324 46.4251Z" fill="black"/>
<path d="M285.343 87.1525C283.677 87.1525 282.189 86.8557 281.118 86.3807C275.049 83.531 276.715 69.5792 278.024 58.4178C278.143 57.5272 278.262 56.6367 278.322 55.7462C279.571 44.8816 285.759 42.0319 288.853 42.0319C288.972 42.0319 289.031 42.0319 289.15 42.0319C289.448 42.0319 289.805 42.0912 290.222 42.0912C293.018 42.2693 298.314 42.5662 302.717 44.2879C309.857 47.0782 309.262 52.0653 308.607 57.8241C308.488 58.774 308.369 59.7833 308.31 60.8519C308.012 64.5328 304.918 70.0542 300.634 77.4753C295.517 86.2026 288.199 87.1525 285.343 87.1525Z" fill="white"/>
<path d="M288.851 42.388C288.97 42.388 289.03 42.388 289.089 42.388C291.35 42.5661 297.538 42.6849 302.596 44.644C310.628 47.7906 308.486 53.7869 307.951 60.7925C307.653 64.2953 304.857 69.4604 300.335 77.2378C295.991 84.7777 289.684 86.7369 285.341 86.7369C283.615 86.7369 282.187 86.44 281.295 86.0245C275.047 83.056 277.427 67.2044 278.736 55.8055C279.926 44.7628 286.352 42.388 288.851 42.388ZM288.851 41.6162C287.304 41.6162 284.924 42.3287 282.782 44.4066C280.105 46.9595 278.498 50.7591 277.903 55.6867C277.784 56.5179 277.725 57.4085 277.606 58.3584C276.237 70.2916 274.631 83.7684 280.938 86.7369C282.009 87.2712 283.615 87.5681 285.341 87.5681C288.316 87.5681 295.813 86.6182 300.989 77.6534C305.452 69.9354 308.427 64.6515 308.724 60.8519C308.784 59.8426 308.903 58.8333 309.022 57.8834C309.676 52.2433 310.271 46.8407 302.893 43.991C298.431 42.2099 293.076 41.9131 290.279 41.735C289.863 41.735 289.506 41.6756 289.208 41.6756C289.03 41.6162 288.97 41.6162 288.851 41.6162Z" fill="black"/>
<path d="M301.828 50.2841C302.007 50.6997 301.471 63.7609 306.231 66.3732C310.991 68.9854 315.156 63.6422 311.884 54.7368C309.206 47.4937 304.506 47.2562 304.506 47.2562" fill="white"/>
<path d="M302.006 50.1654C302.006 50.2248 302.066 50.2842 302.066 50.3435V50.4623V50.6404V50.9966L302.125 51.709L302.244 53.1339C302.304 54.0838 302.423 55.0337 302.542 55.9242C302.78 57.7647 303.077 59.6645 303.613 61.3862C303.91 62.2768 304.208 63.1079 304.684 63.8797C305.1 64.6515 305.636 65.364 306.35 65.7796C307.064 66.1951 307.897 66.492 308.73 66.4326C309.563 66.3732 310.277 66.017 310.872 65.4233C312.002 64.2359 312.419 62.3955 312.478 60.6144C312.478 58.8333 312.121 56.9929 311.526 55.2712C310.931 53.5495 310.158 51.8278 308.968 50.4029C308.373 49.6905 307.718 49.0374 307.004 48.5625C306.647 48.325 306.231 48.0875 305.814 47.9094C305.398 47.7313 304.981 47.5532 304.565 47.4938H304.505C304.386 47.4938 304.267 47.3157 304.267 47.197C304.267 47.0782 304.386 46.9595 304.505 46.9595C305.517 47.0188 306.469 47.4344 307.302 47.9094C308.135 48.4437 308.908 49.0968 309.563 49.8092C310.872 51.2934 311.764 53.0745 312.478 54.8556C313.133 56.696 313.609 58.5959 313.609 60.6144C313.609 61.6237 313.49 62.633 313.192 63.5829C312.895 64.5328 312.419 65.5421 311.645 66.3139C310.872 67.0857 309.801 67.5606 308.73 67.62C308.194 67.62 307.659 67.5606 307.123 67.3825C306.588 67.2044 306.171 67.0263 305.695 66.7295C304.743 66.1358 304.148 65.3046 303.672 64.4141C303.196 63.5235 302.899 62.5736 302.601 61.6831C302.125 59.7832 301.828 57.8834 301.709 55.9836C301.649 55.0337 301.59 54.0838 301.59 53.1339V51.709V50.9966V50.6404V50.4623V50.4029L301.768 50.1654C301.828 50.1061 301.887 50.106 301.947 50.106C302.006 50.1654 302.006 50.1654 302.006 50.1654Z" fill="black"/>
<path d="M282.188 79.4345C281.355 79.3157 279.272 79.1376 279.213 80.3844C279.153 80.9781 279.57 81.6905 279.808 82.1655C279.986 82.581 280.224 82.9373 280.462 83.2935C280.581 83.4716 280.641 83.6497 280.76 83.7684C281.057 84.184 281.533 84.3027 281.95 83.9465C282.485 83.5309 283.021 83.056 283.497 82.5217C283.854 82.1061 284.33 81.6905 284.449 81.0968C284.806 79.85 283.199 79.6126 282.188 79.4345Z" fill="black"/>
<path d="M290.643 67.917C290.107 66.3734 291.238 63.6424 292.011 61.3864C292.428 60.2584 292.844 59.071 293.558 58.1211C294.153 57.3493 294.986 56.6962 295.938 56.6368C296.593 56.5775 297.247 56.815 297.842 57.1118C298.497 57.4086 299.211 57.8242 299.627 58.4179C299.984 58.8929 300.163 59.5459 300.282 60.1396C300.698 61.802 300.936 63.5831 300.639 65.2454C300.341 66.9671 299.389 68.5701 297.902 69.4606C296.771 70.0543 295.462 70.2324 294.213 69.9356C293.023 69.6387 291 69.1638 290.643 67.917Z" fill="#333333"/>
<path d="M282.489 62.2178C282.31 61.4459 281.953 60.496 280.942 60.971C280.347 61.2678 279.871 61.8022 279.692 62.4552C279.573 62.8708 278.919 62.6927 279.038 62.2771C279.335 61.3272 280.109 60.3773 281.18 60.1992C282.37 59.9617 282.846 61.0897 283.084 62.0396C283.203 62.4552 282.548 62.6333 282.489 62.2178Z" fill="black"/>
<path d="M281.062 60.3771C281.062 60.0209 281.062 59.7241 281.003 59.4272C280.884 59.0116 281.538 58.8335 281.657 59.2491C281.776 59.6053 281.776 60.0209 281.776 60.3771C281.717 60.7927 281.062 60.7927 281.062 60.3771Z" fill="black"/>
<path d="M279.508 61.327C279.151 61.0895 278.794 60.8521 278.437 60.5552C278.318 60.4365 278.318 60.199 278.437 60.0803C278.556 59.9615 278.794 59.9615 278.913 60.0803C279.21 60.3177 279.508 60.5552 279.865 60.7333C280.162 60.9708 279.865 61.5645 279.508 61.327Z" fill="black"/>
<path d="M293.564 64.058C293.861 63.2862 294.337 62.455 295.289 63.0487C295.884 63.4049 296.182 63.9986 296.301 64.711C296.36 65.1266 297.015 65.0673 296.955 64.6517C296.777 63.6424 296.182 62.6331 295.17 62.2769C294.04 61.9207 293.385 62.93 292.969 63.8205C292.85 64.2361 293.445 64.4736 293.564 64.058Z" fill="black"/>
<path d="M295.224 62.4547C295.224 62.0985 295.343 61.8016 295.462 61.5048C295.64 61.0892 295.045 60.8517 294.867 61.2673C294.748 61.6235 294.629 61.9798 294.629 62.3953C294.569 62.7516 295.224 62.8703 295.224 62.4547Z" fill="black"/>
<path d="M296.655 63.6424C297.071 63.4643 297.428 63.2862 297.785 63.0487C297.964 62.93 297.964 62.6925 297.845 62.5738C297.726 62.3957 297.547 62.3957 297.369 62.5144C297.071 62.6925 296.714 62.8706 296.357 63.0487C296.06 63.1675 296.298 63.7612 296.655 63.6424Z" fill="black"/>
<path d="M245.136 43.6952C245.136 43.6952 246.445 32.8306 243.946 34.671C241.507 36.4521 239.008 45.8325 239.008 45.8325L245.136 43.6952Z" fill="white"/>
<path d="M244.901 43.6347C245.02 41.7943 245.139 39.8945 245.079 38.054C245.079 37.1635 244.96 36.2136 244.841 35.3824C244.782 35.2043 244.722 34.9668 244.663 34.8481C244.544 34.7293 244.484 34.67 244.365 34.7887C244.306 34.8481 244.187 34.8481 244.127 34.9075L243.889 35.1449C243.711 35.2637 243.592 35.5011 243.473 35.6793C242.937 36.3917 242.58 37.2229 242.164 38.1134C241.747 38.9446 241.39 39.7757 241.093 40.6663C240.438 42.388 239.784 44.1691 239.248 45.9501C239.189 46.0689 239.07 46.1282 238.951 46.0689C238.832 46.0095 238.772 45.9501 238.832 45.8314C239.248 43.991 239.784 42.2099 240.438 40.4288C241.093 38.6477 241.747 36.8666 242.997 35.323C243.175 35.1449 243.294 34.9668 243.532 34.7887L243.83 34.5512C243.949 34.4919 244.068 34.3731 244.187 34.3138C244.246 34.3138 244.365 34.2544 244.425 34.2544C244.544 34.2544 244.603 34.2544 244.722 34.2544C244.782 34.3138 244.901 34.3138 244.96 34.3731C245.02 34.4325 245.079 34.4919 245.139 34.5512C245.377 34.7887 245.436 35.0262 245.555 35.2637C245.734 35.7386 245.793 36.2136 245.853 36.6885C245.912 37.1635 245.912 37.6384 245.912 38.1134C245.912 40.0132 245.734 41.913 245.436 43.7535C245.436 43.8722 245.317 43.9316 245.198 43.9316C245.02 43.8722 244.901 43.8129 244.901 43.6347Z" fill="black"/>
<path d="M259.707 102.054L254.887 71.7756C254.887 71.7756 274.998 71.4788 271.726 60.6142C268.453 49.7496 267.977 52.4806 266.371 52.7774C265.24 53.0149 257.386 54.2023 255.423 53.3711C253.519 52.54 252.864 42.9815 245.248 43.0409C237.692 43.0409 233.586 41.2004 228.588 50.2839C223.59 59.4268 217.402 105.379 217.402 105.379L259.707 102.054Z" fill="white"/>
<path d="M240.954 50.9372C239.467 54.7369 232.565 56.6961 226.317 57.7647C226.198 57.7647 226.079 57.8241 225.901 57.8241C225.782 57.8241 225.663 57.8834 225.484 57.8834C225.782 56.8148 226.079 55.8055 226.377 54.7962C226.793 53.4307 227.269 52.0653 227.924 50.7591C228.578 49.453 229.352 48.2062 230.185 47.0782C230.661 46.4252 231.196 45.8315 231.791 45.2971C232.029 43.9317 232.327 42.5662 232.684 41.26C232.922 40.2508 233.219 39.2415 233.576 38.2322C233.933 37.2229 234.35 36.2136 234.945 35.3231C235.123 35.0856 235.242 34.8481 235.421 34.6107L235.718 34.2545C235.778 34.1951 235.837 34.1357 235.897 34.0763C235.956 34.017 236.016 33.9576 236.135 33.9576C236.254 33.8982 236.313 33.8982 236.432 33.8389C236.551 33.8389 236.67 33.8389 236.789 33.8389C236.908 33.8389 237.027 33.8982 237.087 33.9576C237.146 34.017 237.265 34.0763 237.325 34.1357C237.563 34.4326 237.682 34.67 237.801 34.9669C238.217 36.0355 238.277 37.1042 238.396 38.1728C238.515 39.6571 238.515 41.2007 238.515 42.6849C238.812 42.6849 239.169 42.6849 239.467 42.6849C239.526 42.6849 239.526 42.7443 239.586 42.7443C239.645 42.8036 239.764 42.863 239.883 42.9224C239.943 42.9817 240.002 42.9817 240.062 43.0411L240.121 43.1005C240.24 43.1598 240.478 43.2192 240.538 43.3973C240.716 43.9316 240.954 44.5847 241.133 45.2971C241.549 46.9001 241.966 48.2062 240.954 50.9372Z" fill="#333333"/>
<path d="M272.499 62.5733C272.559 64.1169 272.083 65.6605 271.131 66.8479C270.179 68.0353 268.929 68.9258 267.62 69.5789C266.311 70.232 264.883 70.7069 263.515 71.0631C260.897 71.7162 258.219 72.1318 255.482 72.2505L260.183 101.995C260.242 102.291 260.064 102.529 259.766 102.588C259.469 102.648 259.231 102.469 259.171 102.173V102.113L254.352 71.8943C254.292 71.5974 254.471 71.36 254.768 71.3006H254.828C257.624 71.2412 260.48 70.885 263.217 70.1726C264.586 69.8164 265.895 69.4008 267.144 68.7477C268.394 68.154 269.524 67.3822 270.357 66.3136C271.25 65.3043 271.607 63.9388 271.547 62.6327C271.488 62.2765 271.488 61.9796 271.428 61.6234C271.369 61.2672 271.309 60.9703 271.19 60.6141L270.536 58.5956C270.119 57.2301 269.643 55.8646 269.108 54.6178C268.989 54.321 268.81 53.9648 268.632 53.6679C268.453 53.3711 268.275 53.0742 268.096 52.8961C267.977 52.7774 267.918 52.718 267.799 52.718C267.739 52.718 267.62 52.718 267.501 52.718C267.263 52.7774 266.906 53.0148 266.49 53.1336C266.252 53.193 266.073 53.193 265.895 53.2523L265.359 53.3117L264.288 53.4898C263.574 53.6085 262.86 53.6679 262.146 53.7273C260.718 53.9054 259.29 54.0241 257.803 54.0241C257.089 54.0241 256.375 54.0241 255.601 53.846C255.423 53.7866 255.185 53.7273 255.006 53.6679C254.887 53.6085 254.768 53.5492 254.709 53.4898C254.649 53.4304 254.53 53.3117 254.471 53.2523C254.233 52.9555 254.054 52.5993 253.876 52.243C253.221 50.9369 252.745 49.5714 252.091 48.3247C251.436 47.0779 250.663 45.8905 249.651 45C248.64 44.1094 247.331 43.5157 245.962 43.397C245.724 43.3376 245.427 43.3376 245.189 43.3376C245.129 43.3376 245.01 43.3376 244.951 43.3376C244.891 43.3376 244.772 43.3376 244.713 43.3376C244.415 43.3376 244.118 43.3376 243.82 43.3376L241.678 43.2783C241.262 43.2783 240.845 43.2189 240.369 43.2189C240.191 43.2189 240.012 43.2189 239.834 43.2189C239.715 43.2189 239.596 43.2189 239.536 43.2189C239.417 43.2189 239.298 43.2189 239.239 43.2189C238.941 43.2189 238.644 43.2189 238.346 43.2189C238.287 43.2189 238.227 43.2189 238.108 43.2189C238.049 43.2189 237.989 43.2189 237.87 43.2189C237.692 43.2189 237.573 43.2189 237.394 43.2783C236.026 43.397 234.657 43.8126 233.527 44.525C233.051 44.8219 232.575 45.1781 232.158 45.5937C232.039 45.7124 231.92 45.8312 231.742 45.9499C231.623 46.0686 231.504 46.1874 231.385 46.3061C231.087 46.603 230.79 46.9592 230.552 47.3154C229.719 48.4434 228.945 49.6902 228.35 50.9369C227.755 52.1837 227.279 53.5492 226.863 54.9147C226.565 55.8052 226.327 56.7551 226.089 57.6456C225.613 59.4861 225.197 61.3265 224.721 63.167C224.126 65.9574 223.531 68.7477 222.995 71.5381C220.913 82.6995 219.128 93.9797 217.64 105.26C217.64 105.319 217.64 105.319 217.64 105.379C217.581 105.675 217.343 105.854 217.045 105.794C216.748 105.735 216.569 105.497 216.629 105.2C218.235 93.8609 220.02 82.5808 222.222 71.36C222.757 68.5696 223.352 65.7792 224.007 62.9889C224.423 61.2672 224.84 59.4861 225.316 57.7644C225.613 56.6957 225.911 55.6865 226.208 54.6772C226.625 53.3117 227.101 51.9462 227.755 50.6401C228.41 49.334 229.183 48.0872 230.016 46.9592C230.492 46.3061 231.028 45.7124 231.623 45.1781C231.742 45.0594 231.861 44.9406 232.039 44.8219C232.158 44.7031 232.337 44.5844 232.456 44.4657C232.694 44.2876 232.932 44.1094 233.229 43.9313C234.479 43.1002 235.966 42.6846 237.394 42.5658C237.573 42.5658 237.751 42.5065 237.87 42.5065C237.93 42.5065 238.049 42.5065 238.108 42.5065C238.168 42.5065 238.287 42.5065 238.346 42.5065C238.644 42.5065 239.001 42.5065 239.298 42.5065C239.358 42.5065 239.358 42.5065 239.417 42.5065C239.536 42.5065 239.655 42.5065 239.774 42.5065C239.893 42.5065 240.012 42.5065 240.131 42.5065C240.667 42.5065 241.202 42.5658 241.738 42.5658L243.88 42.6252H244.772H244.951C245.01 42.6252 245.01 42.6252 245.07 42.6252C245.129 42.6252 245.248 42.6252 245.308 42.6252C245.546 42.6252 245.784 42.6252 246.081 42.6846C247.569 42.8033 248.997 43.4564 250.127 44.4657C251.258 45.4156 252.091 46.7217 252.745 47.9685C253.4 49.2746 253.935 50.6401 254.53 51.8868C254.709 52.1837 254.828 52.4805 255.066 52.718C255.125 52.7774 255.185 52.8367 255.244 52.8961C255.304 52.9555 255.363 52.9555 255.363 53.0148C255.482 53.0742 255.661 53.1336 255.78 53.1336C256.434 53.2523 257.148 53.2523 257.803 53.2523C259.231 53.2523 260.659 53.1336 262.027 52.9555C262.741 52.8961 263.455 52.7774 264.169 52.6586L265.24 52.4805L265.776 52.4212C265.954 52.4212 266.133 52.3618 266.252 52.3024C266.549 52.243 266.787 52.0056 267.204 51.8868C267.442 51.8275 267.739 51.7681 267.977 51.8868C268.215 51.9462 268.453 52.1243 268.572 52.3024C268.87 52.5993 269.048 52.9555 269.286 53.2523C269.465 53.6085 269.643 53.9054 269.762 54.2616C270.357 55.6271 270.833 56.9332 271.25 58.2987L271.904 60.3766C272.023 60.7329 272.083 61.0891 272.202 61.4453C272.44 61.8015 272.499 62.2171 272.499 62.5733Z" fill="black"/>
<path d="M238.351 44.3474C238.351 44.3474 238.648 32.1767 236.09 34.4327C233.531 36.6888 231.746 47.3752 231.746 47.3752L238.351 44.3474Z" fill="#333333"/>
<path d="M238.535 38.054C238.654 39.5382 238.654 41.0818 238.654 42.5661C238.654 42.6848 238.654 42.8036 238.654 42.9223C238.654 43.041 238.654 43.1598 238.654 43.2785C238.654 43.6347 238.595 44.0503 238.595 44.4065C238.595 44.5253 238.476 44.5846 238.416 44.5846C238.357 44.5846 238.297 44.5253 238.297 44.4659V44.4065C238.297 44.0503 238.297 43.6941 238.238 43.3379C238.238 43.2191 238.238 43.1004 238.238 42.9817C238.238 42.8629 238.238 42.7442 238.238 42.6255C238.238 42.1505 238.178 41.7349 238.178 41.26C238.119 40.1913 238.059 39.182 237.881 38.1728C237.762 37.1635 237.583 36.0948 237.226 35.2043C237.107 35.0262 237.048 34.7887 236.929 34.67C236.81 34.6106 236.81 34.6106 236.691 34.67C236.631 34.7293 236.572 34.7887 236.453 34.8481L236.215 35.0855C236.036 35.2636 235.917 35.4418 235.798 35.6792C235.263 36.5104 234.906 37.4603 234.549 38.4696C234.192 39.4195 233.894 40.4288 233.597 41.4381C233.299 42.5067 233.002 43.516 232.764 44.5846C232.704 44.7627 232.704 44.9409 232.645 45.119C232.585 45.2971 232.526 45.5345 232.526 45.7127C232.407 46.247 232.288 46.7813 232.169 47.3156C232.169 47.375 232.169 47.4344 232.109 47.4937C232.05 47.6125 231.931 47.7312 231.812 47.6718C231.693 47.6718 231.574 47.4937 231.633 47.375C231.693 47.0781 231.752 46.7219 231.752 46.4251C231.752 46.1876 231.812 46.0095 231.871 45.772C231.931 45.5939 231.931 45.4158 231.99 45.2377C232.228 43.8722 232.526 42.5067 232.883 41.2006C233.121 40.1913 233.418 39.182 233.775 38.1728C234.132 37.1635 234.549 36.1542 235.144 35.2637C235.322 35.0262 235.441 34.7887 235.62 34.5512L235.917 34.195C235.977 34.1356 236.036 34.0763 236.096 34.0169C236.155 33.9575 236.215 33.8982 236.334 33.8982C236.453 33.8388 236.512 33.8388 236.631 33.7794C236.75 33.7794 236.869 33.7794 236.988 33.7794C237.107 33.7794 237.226 33.8388 237.286 33.8982C237.345 33.9575 237.464 34.0169 237.524 34.0763C237.762 34.3731 237.881 34.6106 238 34.9074C238.297 35.9167 238.416 36.9854 238.535 38.054Z" fill="black"/>
<path d="M268.754 60.555C268.992 60.555 268.992 60.1394 268.694 60.1988C268.456 60.1988 268.516 60.555 268.754 60.555Z" fill="black"/>
<path d="M269.231 61.9797C269.469 61.9797 269.469 61.5641 269.171 61.6235C268.933 61.6235 268.993 61.9797 269.231 61.9797Z" fill="black"/>
<path d="M267.731 63.4638C267.968 63.4638 267.968 63.0482 267.671 63.1076C267.433 63.1076 267.493 63.4638 267.731 63.4638Z" fill="black"/>
<path d="M267.691 61.1489C267.929 61.1489 267.929 60.7333 267.631 60.7927C267.453 60.7927 267.453 61.2083 267.691 61.1489Z" fill="black"/>
<path d="M264.59 61.0299C264.828 61.0299 264.828 60.6143 264.53 60.6737C264.292 60.6737 264.352 61.0299 264.59 61.0299Z" fill="black"/>
<path d="M265.958 62.3952C266.196 62.3952 266.196 61.9796 265.898 62.039C265.66 62.039 265.66 62.3952 265.958 62.3952Z" fill="black"/>
<path d="M264.543 65.0671C264.781 65.0671 264.781 64.6515 264.484 64.7109C264.246 64.6515 264.305 65.0671 264.543 65.0671Z" fill="black"/>
<path d="M268.811 64.5329C269.049 64.5329 269.049 64.1173 268.752 64.1767C268.574 64.1767 268.574 64.5329 268.811 64.5329Z" fill="black"/>
<path d="M266.555 64.7702C266.793 64.7702 266.793 64.3546 266.496 64.414C266.258 64.3546 266.258 64.7702 266.555 64.7702Z" fill="black"/>
<path d="M265.953 53.7274C266.31 53.4305 266.905 53.3118 267.381 53.193C267.678 53.1337 267.857 53.0743 268.095 53.2524C268.392 53.4899 268.63 54.1429 268.749 54.4992C268.928 54.9147 269.106 55.3897 269.285 55.8053C269.404 56.0428 269.582 56.2802 269.463 56.5177C269.404 56.5771 269.344 56.6364 269.285 56.6364C268.809 56.5771 268.273 56.2209 267.857 55.924C267.381 55.6272 266.905 55.3303 266.429 54.9741C265.953 54.7366 265.358 54.2023 265.953 53.7274Z" fill="black"/>
<path d="M246.44 54.6179C246.38 53.7867 247.272 53.0743 248.105 53.1337C248.76 53.193 249.176 53.7274 249.295 54.3211C249.474 55.0335 250.545 54.6179 250.367 53.9055C250.069 52.7181 248.998 51.8275 247.689 52.0056C246.38 52.1837 245.19 53.3118 245.309 54.7366C245.309 55.4491 246.44 55.3303 246.44 54.6179Z" fill="black"/>
<path d="M85.7269 43.2581C85.7269 43.2581 84.4179 32.3936 86.917 34.234C89.3565 36.0151 91.8555 45.3954 91.8555 45.3954L85.7269 43.2581Z" fill="white"/>
<path d="M85.9623 43.1976C85.8433 41.3572 85.7244 39.4573 85.7839 37.6169C85.7839 36.7264 85.9029 35.7764 86.0218 34.9453C86.0813 34.7672 86.1408 34.5297 86.2003 34.411C86.3193 34.2922 86.3788 34.2328 86.4978 34.3516C86.5573 34.411 86.6763 34.411 86.7358 34.4703L86.9739 34.7078C87.1524 34.8265 87.2713 35.064 87.3903 35.2421C87.9258 35.9546 88.2828 36.7857 88.6993 37.6763C89.1158 38.5074 89.4728 39.3386 89.7703 40.2292C90.4248 41.9509 91.0793 43.7319 91.6148 45.513C91.6743 45.6318 91.7933 45.6911 91.9123 45.6318C92.0313 45.5724 92.0908 45.513 92.0313 45.3943C91.6148 43.5538 91.0793 41.7727 90.4248 39.9917C89.7703 38.2106 89.1158 36.4295 87.8664 34.8859C87.6879 34.7078 87.5688 34.5297 87.3308 34.3516L87.0333 34.1141C86.9143 34.0547 86.7954 33.936 86.6764 33.8766C86.6169 33.8766 86.4978 33.8173 86.4383 33.8173C86.3193 33.8173 86.2598 33.8173 86.1408 33.8173C86.0813 33.8766 85.9623 33.8766 85.9028 33.936C85.8433 33.9954 85.7839 34.0547 85.7244 34.1141C85.4864 34.3516 85.4268 34.5891 85.3078 34.8265C85.1293 35.3015 85.0698 35.7765 85.0103 36.2514C84.9508 36.7264 84.9508 37.2013 84.9508 37.6763C84.9508 39.5761 85.1294 41.4759 85.4269 43.3164C85.4269 43.4351 85.5458 43.4945 85.6648 43.4945C85.8433 43.4351 85.9623 43.3757 85.9623 43.1976Z" fill="black"/>
<path d="M71.1487 101.617L75.9682 71.3386C75.9682 71.3386 55.8572 71.0418 59.1297 60.1772C62.4022 49.3126 62.8782 52.0436 64.4847 52.3404C65.6152 52.5779 73.4692 53.7653 75.4327 52.9341C77.3367 52.1029 77.9912 42.5445 85.6072 42.6039C93.1636 42.6039 97.2691 40.7634 102.267 49.8469C107.265 58.9898 113.453 104.942 113.453 104.942L71.1487 101.617Z" fill="white"/>
<path d="M89.8816 50.5C91.3691 54.2996 98.2711 56.2588 104.519 57.3275C104.638 57.3275 104.757 57.3868 104.935 57.3868C105.054 57.3868 105.173 57.4462 105.352 57.4462C105.054 56.3775 104.757 55.3683 104.459 54.359C104.043 52.9935 103.567 51.628 102.912 50.3219C102.258 49.0157 101.484 47.769 100.651 46.641C100.175 45.9879 99.6396 45.3942 99.0446 44.8599C98.8066 43.4944 98.5091 42.1289 98.1521 40.8228C97.9141 39.8135 97.6166 38.8042 97.2596 37.7949C96.9026 36.7857 96.4861 35.7764 95.8911 34.8858C95.7126 34.6484 95.5936 34.4109 95.4151 34.1734L95.1176 33.8172C95.0581 33.7578 94.9986 33.6985 94.9391 33.6391C94.8796 33.5797 94.8201 33.5203 94.7011 33.5203C94.5821 33.461 94.5226 33.461 94.4036 33.4016C94.2846 33.4016 94.1656 33.4016 94.0466 33.4016C93.9276 33.4016 93.8086 33.461 93.7491 33.5203C93.6896 33.5797 93.5706 33.6391 93.5111 33.6985C93.2731 33.9953 93.1541 34.2328 93.0351 34.5296C92.6186 35.5983 92.5591 36.6669 92.4401 37.7356C92.3211 39.2198 92.3211 40.7634 92.3211 42.2476C92.0236 42.2476 91.6666 42.2476 91.3691 42.2476C91.3096 42.2476 91.3096 42.307 91.2501 42.307C91.1906 42.3664 91.0716 42.4258 90.9526 42.4851C90.8931 42.5445 90.8336 42.5445 90.7741 42.6039L90.7146 42.6632C90.5956 42.7226 90.3576 42.782 90.2981 42.9601C90.1196 43.4944 89.8816 44.1475 89.7031 44.8599C89.2866 46.4629 88.8701 47.769 89.8816 50.5Z" fill="#333333"/>
<path d="M58.3564 62.1363C58.2969 63.6799 58.7729 65.2235 59.7249 66.4109C60.6769 67.5983 61.9264 68.4888 63.2354 69.1419C64.5444 69.7949 65.9724 70.2699 67.3409 70.6261C69.9589 71.2792 72.6364 71.6948 75.3734 71.8135L70.6729 101.558C70.6134 101.854 70.7919 102.092 71.0894 102.151C71.3869 102.211 71.6249 102.032 71.6844 101.736V101.676L76.5039 71.4573C76.5634 71.1604 76.3849 70.923 76.0874 70.8636H76.0279C73.2314 70.8042 70.3754 70.448 67.6384 69.7356C66.2699 69.3794 64.9609 68.9638 63.7114 68.3107C62.4619 67.717 61.3314 66.9452 60.4984 65.8766C59.6059 64.8673 59.2489 63.5018 59.3084 62.1957C59.3679 61.8395 59.3679 61.5426 59.4274 61.1864C59.4869 60.8302 59.5464 60.5333 59.6654 60.1771L60.3199 58.1586C60.7364 56.7931 61.2124 55.4276 61.7479 54.1808C61.8669 53.884 62.0454 53.5277 62.2239 53.2309C62.4024 52.934 62.5809 52.6372 62.7594 52.4591C62.8784 52.3404 62.9379 52.281 63.0569 52.281C63.1164 52.281 63.2354 52.281 63.3544 52.281C63.5924 52.3404 63.9494 52.5778 64.3659 52.6966C64.6039 52.7559 64.7824 52.7559 64.9609 52.8153L65.4964 52.8747L66.5674 53.0528C67.2814 53.1715 67.9954 53.2309 68.7094 53.2903C70.1374 53.4684 71.5654 53.5871 73.0529 53.5871C73.7669 53.5871 74.4809 53.5871 75.2544 53.409C75.4329 53.3496 75.6709 53.2903 75.8494 53.2309C75.9684 53.1715 76.0874 53.1122 76.1469 53.0528C76.2064 52.9934 76.3254 52.8747 76.3849 52.8153C76.6229 52.5185 76.8014 52.1622 76.9799 51.806C77.6344 50.4999 78.1104 49.1344 78.7649 47.8877C79.4194 46.6409 80.1929 45.4535 81.2044 44.563C82.2159 43.6724 83.5249 43.0787 84.8934 42.96C85.1314 42.9006 85.4289 42.9006 85.6669 42.9006C85.7264 42.9006 85.8454 42.9006 85.9049 42.9006C85.9644 42.9006 86.0834 42.9006 86.1429 42.9006C86.4404 42.9006 86.7379 42.9006 87.0354 42.9006L89.1774 42.8413C89.5939 42.8413 90.0104 42.7819 90.4864 42.7819C90.6649 42.7819 90.8434 42.7819 91.0219 42.7819C91.1409 42.7819 91.2599 42.7819 91.3194 42.7819C91.4384 42.7819 91.5574 42.7819 91.6169 42.7819C91.9144 42.7819 92.2119 42.7819 92.5094 42.7819C92.5689 42.7819 92.6284 42.7819 92.7474 42.7819C92.8069 42.7819 92.8664 42.7819 92.9854 42.7819C93.1639 42.7819 93.2829 42.7819 93.4614 42.8413C94.8299 42.96 96.1984 43.3756 97.3289 44.088C97.8049 44.3849 98.2809 44.7411 98.6974 45.1567C98.8164 45.2754 98.9354 45.3941 99.1139 45.5129C99.2329 45.6316 99.3519 45.7504 99.4709 45.8691C99.7684 46.1659 100.066 46.5222 100.304 46.8784C101.137 48.0064 101.91 49.2532 102.505 50.4999C103.1 51.7467 103.576 53.1122 103.993 54.4777C104.29 55.3682 104.528 56.3181 104.766 57.2086C105.242 59.0491 105.659 60.8895 106.135 62.73C106.73 65.5203 107.325 68.3107 107.86 71.1011C109.943 82.2625 111.728 93.5427 113.215 104.823C113.215 104.882 113.215 104.882 113.215 104.942C113.275 105.238 113.513 105.417 113.81 105.357C114.108 105.298 114.286 105.06 114.227 104.763C112.62 93.4239 110.835 82.1438 108.634 70.923C108.098 68.1326 107.503 65.3422 106.849 62.5519C106.432 60.8302 106.016 59.0491 105.54 57.3274C105.242 56.2587 104.945 55.2494 104.647 54.2402C104.231 52.8747 103.755 51.5092 103.1 50.2031C102.446 48.8969 101.672 47.6502 100.839 46.5222C100.363 45.8691 99.8279 45.2754 99.2329 44.7411C99.1139 44.6223 98.9949 44.5036 98.8164 44.3849C98.6974 44.2661 98.5189 44.1474 98.3999 44.0286C98.1619 43.8505 97.9239 43.6724 97.6264 43.4943C96.3769 42.6632 94.8894 42.2476 93.4614 42.1288C93.2829 42.1288 93.1044 42.0695 92.9854 42.0695C92.9259 42.0695 92.8069 42.0695 92.7474 42.0695C92.6879 42.0695 92.5689 42.0695 92.5094 42.0695C92.2119 42.0695 91.8549 42.0695 91.5574 42.0695C91.4979 42.0695 91.4979 42.0695 91.4384 42.0695C91.3194 42.0695 91.2004 42.0695 91.0814 42.0695C90.9624 42.0695 90.8434 42.0695 90.7244 42.0695C90.1889 42.0695 89.6534 42.1288 89.1179 42.1288L86.9759 42.1882H86.0834H85.9049C85.8454 42.1882 85.8454 42.1882 85.7859 42.1882C85.7264 42.1882 85.6074 42.1882 85.5479 42.1882C85.3099 42.1882 85.0719 42.1882 84.7744 42.2476C83.2869 42.3663 81.8589 43.0194 80.7284 44.0286C79.5979 44.9786 78.7649 46.2847 78.1104 47.5314C77.4559 48.8376 76.9204 50.2031 76.3254 51.4498C76.1469 51.7467 76.0279 52.0435 75.7899 52.281C75.7304 52.3404 75.6709 52.3997 75.6114 52.4591C75.5519 52.5185 75.4924 52.5185 75.4924 52.5778C75.3734 52.6372 75.1949 52.6966 75.0759 52.6966C74.4214 52.8153 73.7074 52.8153 73.0529 52.8153C71.6249 52.8153 70.1969 52.6966 68.8284 52.5185C68.1144 52.4591 67.4004 52.3404 66.6864 52.2216L65.6154 52.0435L65.0799 51.9841C64.9014 51.9841 64.7229 51.9248 64.6039 51.8654C64.3064 51.806 64.0684 51.5686 63.6519 51.4498C63.4139 51.3904 63.1164 51.3311 62.8784 51.4498C62.6404 51.5092 62.4024 51.6873 62.2834 51.8654C61.9859 52.1622 61.8074 52.5185 61.5694 52.8153C61.3909 53.1715 61.2124 53.4684 61.0934 53.8246C60.4984 55.1901 60.0224 56.4962 59.6059 57.8617L58.9514 59.9396C58.8324 60.2958 58.7729 60.6521 58.6539 61.0083C58.4159 61.3645 58.3564 61.7801 58.3564 62.1363Z" fill="black"/>
<path d="M92.5165 43.9101C92.5165 43.9101 92.219 31.7394 94.7775 33.9955C97.3361 36.2515 99.1211 46.938 99.1211 46.938L92.5165 43.9101Z" fill="#333333"/>
<path d="M92.3322 37.6168C92.2132 39.101 92.2132 40.6446 92.2132 42.1288C92.2132 42.2476 92.2132 42.3663 92.2132 42.485C92.2132 42.6038 92.2132 42.7225 92.2132 42.8413C92.2132 43.1975 92.2727 43.6131 92.2727 43.9693C92.2727 44.088 92.3917 44.1474 92.4512 44.1474C92.5107 44.1474 92.5702 44.088 92.5702 44.0286V43.9693C92.5702 43.6131 92.5702 43.2568 92.6297 42.9006C92.6297 42.7819 92.6297 42.6632 92.6297 42.5444C92.6297 42.4257 92.6297 42.3069 92.6297 42.1882C92.6297 41.7132 92.6892 41.2977 92.6892 40.8227C92.7487 39.7541 92.8082 38.7448 92.9867 37.7355C93.1057 36.7262 93.2842 35.6576 93.6412 34.767C93.7602 34.5889 93.8197 34.3514 93.9387 34.2327C94.0577 34.1733 94.0577 34.1733 94.1767 34.2327C94.2362 34.2921 94.2957 34.3514 94.4147 34.4108L94.6527 34.6483C94.8312 34.8264 94.9502 35.0045 95.0692 35.242C95.6047 36.0732 95.9617 37.0231 96.3187 38.0323C96.6757 38.9823 96.9732 39.9915 97.2707 41.0008C97.5682 42.0695 97.8657 43.0787 98.1037 44.1474C98.1632 44.3255 98.1632 44.5036 98.2227 44.6817C98.2822 44.8598 98.3417 45.0973 98.3417 45.2754C98.4607 45.8097 98.5797 46.3441 98.6987 46.8784C98.6987 46.9377 98.6987 46.9971 98.7582 47.0565C98.8177 47.1752 98.9367 47.294 99.0557 47.2346C99.1747 47.2346 99.2937 47.0565 99.2342 46.9377C99.1747 46.6409 99.1152 46.2847 99.1152 45.9878C99.1152 45.7504 99.0557 45.5722 98.9962 45.3348C98.9367 45.1567 98.9367 44.9786 98.8772 44.8004C98.6392 43.435 98.3417 42.0695 97.9847 40.7633C97.7467 39.7541 97.4492 38.7448 97.0922 37.7355C96.7352 36.7262 96.3187 35.7169 95.7237 34.8264C95.5452 34.5889 95.4262 34.3514 95.2477 34.114L94.9502 33.7577C94.8907 33.6984 94.8312 33.639 94.7717 33.5796C94.7122 33.5203 94.6527 33.4609 94.5337 33.4609C94.4147 33.4015 94.3552 33.4015 94.2362 33.3422C94.1172 33.3422 93.9982 33.3422 93.8792 33.3422C93.7602 33.3422 93.6412 33.4015 93.5817 33.4609C93.5222 33.5203 93.4032 33.5796 93.3437 33.639C93.1057 33.9359 92.9867 34.1733 92.8677 34.4702C92.5702 35.4795 92.4512 36.5481 92.3322 37.6168Z" fill="black"/>
<path d="M62.1093 60.1178C61.8713 60.1178 61.8713 59.7022 62.1688 59.7615C62.4068 59.7615 62.3473 60.1178 62.1093 60.1178Z" fill="black"/>
<path d="M61.6327 61.5428C61.3947 61.5428 61.3947 61.1272 61.6922 61.1866C61.9302 61.1866 61.8707 61.5428 61.6327 61.5428Z" fill="black"/>
<path d="M63.121 63.0268C62.883 63.0268 62.883 62.6112 63.1805 62.6706C63.4185 62.6706 63.359 63.0268 63.121 63.0268Z" fill="black"/>
<path d="M63.1765 60.7115C62.9385 60.7115 62.9385 60.2959 63.236 60.3553C63.4145 60.3553 63.4146 60.7709 63.1765 60.7115Z" fill="black"/>
<path d="M66.2695 60.5929C66.0315 60.5929 66.0315 60.1773 66.329 60.2366C66.567 60.2366 66.5075 60.5929 66.2695 60.5929Z" fill="black"/>
<path d="M64.8977 61.9583C64.6597 61.9583 64.6597 61.5427 64.9572 61.6021C65.1952 61.6021 65.1952 61.9583 64.8977 61.9583Z" fill="black"/>
<path d="M66.328 64.6298C66.09 64.6298 66.0901 64.2143 66.3876 64.2736C66.6256 64.2143 66.566 64.6298 66.328 64.6298Z" fill="black"/>
<path d="M62.0359 64.0957C61.7979 64.0957 61.7979 63.6801 62.0954 63.7394C62.2739 63.7394 62.2739 64.0957 62.0359 64.0957Z" fill="black"/>
<path d="M64.304 64.3327C64.066 64.3327 64.066 63.9171 64.3635 63.9765C64.6015 63.9171 64.6015 64.3327 64.304 64.3327Z" fill="black"/>
<path d="M64.9028 53.2902C64.5458 52.9934 63.9508 52.8746 63.4748 52.7559C63.1773 52.6965 62.9988 52.6372 62.7608 52.8153C62.4633 53.0528 62.2253 53.7058 62.1063 54.062C61.9278 54.4776 61.7493 54.9526 61.5708 55.3682C61.4518 55.6056 61.2733 55.8431 61.3923 56.0806C61.4518 56.14 61.5113 56.1993 61.5708 56.1993C62.0468 56.14 62.5823 55.7837 62.9988 55.4869C63.4748 55.19 63.9508 54.8932 64.4268 54.537C64.9028 54.2995 65.4978 53.7652 64.9028 53.2902Z" fill="black"/>
<path d="M84.416 54.1808C84.4755 53.3496 83.583 52.6372 82.7499 52.6965C82.0954 52.7559 81.6789 53.2902 81.5599 53.8839C81.3814 54.5963 80.3104 54.1808 80.4889 53.4683C80.7864 52.2809 81.8574 51.3904 83.1664 51.5685C84.4754 51.7466 85.6655 52.8746 85.5465 54.2995C85.5465 55.0119 84.416 54.8932 84.416 54.1808Z" fill="black"/>
<path d="M188.425 55.5077C188.127 55.0328 184.2 45.1181 181.88 45.6524C180.333 46.0086 180.987 54.0829 180.928 55.9233" fill="#FFFBF7"/>
<path d="M188.6 55.3891L187.529 52.7768C187.172 51.8863 186.755 51.0551 186.279 50.1646C185.863 49.3334 185.387 48.4429 184.851 47.6711C184.613 47.2555 184.316 46.8993 183.959 46.4837C183.661 46.1275 183.304 45.7119 182.828 45.4744C182.59 45.3557 182.293 45.2369 181.936 45.2369C181.757 45.2369 181.519 45.3557 181.4 45.4744C181.281 45.5932 181.162 45.7119 181.103 45.8306C180.865 46.3056 180.746 46.8399 180.686 47.3149C180.567 48.2648 180.508 49.2147 180.508 50.224C180.508 51.1739 180.567 52.1238 180.567 53.0737L180.746 55.9234C180.746 55.9828 180.805 56.0421 180.924 56.0421C180.984 56.0421 181.043 55.9828 181.043 55.9234C181.103 54.0236 180.984 52.1238 181.103 50.224C181.162 49.274 181.162 48.3241 181.341 47.4336C181.4 46.9586 181.519 46.5431 181.698 46.1869C181.757 46.1275 181.817 46.0681 181.817 46.0087C181.876 45.9494 181.876 45.9494 181.936 45.9494C182.055 45.9494 182.233 45.9494 182.412 46.0681C182.769 46.2462 183.066 46.6024 183.364 46.9586C183.661 47.3149 183.959 47.6711 184.197 48.0867C184.732 48.8585 185.149 49.6896 185.625 50.5208C186.517 52.1831 187.291 53.9049 188.183 55.6266C188.243 55.7453 188.362 55.7453 188.421 55.6859C188.6 55.6266 188.659 55.5672 188.6 55.3891Z" fill="black"/>
<path d="M211.149 104.132C209.602 103.538 206.687 85.6083 204.902 76.2873C202.105 61.6825 199.666 53.4895 187.647 53.0739C172.891 52.5396 176.58 64.6509 172.712 66.3133C168.845 67.9756 162.359 68.2131 164.144 73.2595C167.714 83.5897 175.568 81.9868 176.342 85.4896C177.115 88.9924 174.676 103.716 173.545 106.625" fill="white"/>
<path d="M211.265 103.835C211.265 103.835 211.146 103.716 211.086 103.597C211.027 103.478 210.967 103.3 210.848 103.182C210.729 102.885 210.61 102.529 210.491 102.232C210.253 101.579 210.075 100.926 209.956 100.213C209.599 98.8476 209.301 97.4821 209.063 96.1166C208.528 93.3857 207.992 90.5953 207.516 87.8643C206.505 82.343 205.612 76.8216 204.422 71.3003C203.827 68.5693 203.173 65.7789 202.102 63.1073C201.566 61.8012 200.971 60.4357 200.257 59.2483C199.484 58.0015 198.532 56.8735 197.461 55.9236C196.33 54.9737 195.021 54.2019 193.653 53.727C192.284 53.1926 190.856 52.8958 189.428 52.777C188 52.6583 186.572 52.5989 185.085 52.7177C183.657 52.8364 182.169 53.0739 180.801 53.6676C179.432 54.2019 178.183 55.0924 177.171 56.2205C176.219 57.3485 175.565 58.714 175.089 60.0795C174.613 61.445 174.315 62.8105 173.839 64.1166C173.601 64.7696 173.304 65.3633 172.947 65.7196C172.828 65.8383 172.709 65.8977 172.59 65.957C172.53 66.0164 172.471 66.0164 172.411 66.0758L172.173 66.1945C171.876 66.3133 171.519 66.432 171.221 66.5507C169.912 66.9663 168.544 67.3225 167.175 67.8569C166.521 68.0943 165.807 68.3912 165.152 68.8068C164.498 69.2223 163.903 69.7567 163.546 70.5285C163.189 71.3003 163.189 72.1314 163.367 72.9032C163.546 73.6751 163.784 74.3281 164.081 74.9812C164.617 76.2873 165.331 77.5934 166.223 78.7214C167.116 79.8495 168.187 80.8587 169.377 81.6899C170.567 82.5211 171.876 83.1148 173.185 83.7085C174.434 84.3022 175.743 84.8958 175.803 86.202C175.981 87.5081 175.862 88.933 175.803 90.2985C175.624 93.0888 175.267 95.8792 174.791 98.6102C174.553 99.9757 174.315 101.401 174.077 102.766C173.78 104.132 173.542 105.497 173.066 106.803C173.006 106.922 173.066 107.1 173.244 107.159C173.363 107.219 173.542 107.159 173.601 106.981C174.077 105.616 174.375 104.25 174.672 102.885C174.97 101.519 175.208 100.094 175.446 98.7289C175.922 95.9385 176.338 93.1482 176.576 90.3578C176.695 88.933 176.814 87.5675 176.636 86.0832C176.576 85.727 176.457 85.3114 176.279 84.9552C176.041 84.599 175.803 84.3022 175.446 84.0647C174.851 83.5897 174.196 83.2929 173.542 82.996C172.233 82.4023 170.983 81.8086 169.853 81.0368C168.722 80.265 167.711 79.3151 166.878 78.2465C166.045 77.1778 165.39 75.9905 164.855 74.6843C164.617 74.0313 164.319 73.3782 164.2 72.7845C164.081 72.1314 164.081 71.5377 164.319 71.0034C164.557 70.4691 165.033 70.0535 165.569 69.6973C166.104 69.3411 166.759 69.1036 167.354 68.8661C168.663 68.3912 170.031 68.035 171.34 67.6194C171.697 67.5006 171.995 67.3819 172.352 67.2632L172.59 67.1444C172.649 67.085 172.768 67.0851 172.887 67.0257C173.066 66.9069 173.244 66.7882 173.423 66.6695C174.018 66.0758 174.375 65.3633 174.613 64.6509C175.089 63.2854 175.386 61.9199 175.862 60.6138C176.338 59.3077 176.933 58.1203 177.766 57.111C178.599 56.1017 179.73 55.3299 180.979 54.855C183.478 53.9051 186.334 53.8457 189.071 54.1425C190.44 54.2613 191.749 54.5581 193.058 55.0331C194.307 55.508 195.497 56.1611 196.509 57.0516C197.52 57.9422 198.413 58.9515 199.127 60.1388C199.841 61.3262 200.436 62.573 200.912 63.8197C201.923 66.3726 202.578 69.1036 203.173 71.8346C204.363 77.2966 205.315 82.8179 206.386 88.3393C206.921 91.1296 207.457 93.8606 208.052 96.5916C208.349 97.9571 208.647 99.3226 209.004 100.688C209.182 101.401 209.361 102.054 209.599 102.707C209.718 103.063 209.837 103.36 209.956 103.716C210.015 103.894 210.134 104.072 210.194 104.25C210.313 104.428 210.372 104.606 210.729 104.785C210.908 104.844 211.086 104.785 211.205 104.606C211.503 104.072 211.443 103.894 211.265 103.835Z" fill="black"/>
<path d="M178.771 67.7974C178.712 67.6787 178.712 67.5006 178.771 67.3818C178.771 67.085 178.89 66.7881 179.307 66.8475C180.199 66.9069 181.568 67.085 182.163 67.7974C182.817 68.5692 182.103 69.5191 181.151 69.2816C180.675 69.1629 180.14 68.866 179.723 68.6286C179.307 68.3911 178.95 68.213 178.771 67.7974Z" fill="black"/>
<path d="M164.913 70.3503C165.329 69.8753 166.4 69.341 167.055 69.5191C167.769 69.7566 167.947 70.5877 167.888 71.3002C167.769 72.1313 167.293 72.8438 166.817 73.5562C166.519 73.9718 166.103 74.2093 165.865 73.853C165.508 73.6156 165.21 72.9625 165.032 72.6063C164.734 71.9532 164.377 70.944 164.913 70.3503Z" fill="black"/>
<path d="M198.773 60.5545C198.773 59.9014 198.178 47.0777 195.798 46.009C193.835 45.1779 191.574 54.4395 191.098 56.5768" fill="white"/>
<path d="M198.951 60.5544C198.951 58.239 198.773 55.983 198.535 53.727C198.416 52.599 198.237 51.4709 197.999 50.3429C197.761 49.2149 197.523 48.0869 196.988 47.0182C196.869 46.7214 196.69 46.4839 196.512 46.1871C196.333 45.9496 196.036 45.6528 195.619 45.5934C195.5 45.5934 195.381 45.5934 195.262 45.5934C195.143 45.5934 195.084 45.6528 194.965 45.7121C194.905 45.7715 194.786 45.8309 194.727 45.8309L194.548 46.009C194.31 46.2464 194.132 46.4839 193.953 46.7214C193.299 47.7307 192.942 48.7993 192.525 49.9273C191.811 52.124 191.276 54.3207 190.859 56.5767C190.859 56.6954 190.919 56.7548 190.978 56.7548C191.038 56.7548 191.157 56.6954 191.157 56.6361C191.454 55.5674 191.752 54.4394 192.109 53.3708C192.406 52.3021 192.763 51.2335 193.18 50.1648C193.596 49.0962 194.013 48.0869 194.548 47.137C194.667 46.8995 194.846 46.7214 195.024 46.5433C195.203 46.3652 195.381 46.3058 195.5 46.3652C195.5 46.3652 195.56 46.3652 195.619 46.4246C195.679 46.4246 195.679 46.4839 195.738 46.4839C195.798 46.5433 195.917 46.6027 195.976 46.7214C196.155 46.8995 196.274 47.137 196.393 47.3745C196.869 48.3244 197.107 49.4524 197.345 50.521C197.583 51.5897 197.761 52.7177 197.88 53.8457C198.178 56.1017 198.416 58.3578 198.535 60.5544C198.535 60.6732 198.654 60.7326 198.773 60.7326C198.892 60.7326 198.951 60.6732 198.951 60.5544Z" fill="black"/>
<path d="M171.461 73.141C171.223 73.141 171.164 72.7847 171.402 72.7847C171.699 72.7254 171.699 73.141 171.461 73.141Z" fill="black"/>
<path d="M170.102 73.6755C169.864 73.6755 169.804 73.3193 170.042 73.3193C170.34 73.2599 170.34 73.6755 170.102 73.6755Z" fill="black"/>
<path d="M174.262 75.6345C174.024 75.6345 173.964 75.2783 174.202 75.2783C174.5 75.2189 174.5 75.5751 174.262 75.6345Z" fill="black"/>
<path d="M172.832 74.1504C172.594 74.1504 172.535 73.7942 172.773 73.7942C173.011 73.7942 173.07 74.1504 172.832 74.1504Z" fill="black"/>
<path d="M171.644 74.8626C171.407 74.8626 171.347 74.5064 171.585 74.5064C171.822 74.447 171.882 74.8032 171.644 74.8626Z" fill="black"/>
<path d="M170.031 75.397C169.793 75.397 169.734 75.0408 169.972 75.0408C170.269 75.0408 170.269 75.397 170.031 75.397Z" fill="black"/>
<path d="M172.168 77.297C171.93 77.297 171.871 76.9407 172.109 76.9407C172.406 76.8814 172.406 77.2376 172.168 77.297Z" fill="black"/>
<path d="M172.359 75.9313C172.121 75.9313 172.062 75.5751 172.3 75.5751C172.538 75.5158 172.598 75.9313 172.359 75.9313Z" fill="black"/>
<path d="M73.8672 22.6859C73.9386 20.0209 67.6511 18.2749 59.5774 17.6776C54.0758 17.2641 43.0727 17.8155 40.0004 19.3777C36.928 20.8939 36.8566 30.1753 38.2141 32.0132C39.2144 33.3916 41.858 34.0808 44.5016 34.4943C44.716 35.4132 45.0732 37.0214 45.1447 37.5268C45.2161 38.0322 47.2167 36.1943 48.5028 34.9538C53.4328 35.2295 65.5791 35.3213 67.7226 34.3565C71.6523 32.5186 73.7957 26.5914 73.8672 22.6859Z" fill="white"/>
<path d="M45.0768 37.8943C44.8624 37.8483 44.6481 37.7105 44.6481 37.5267C44.6481 37.2051 44.3623 36.1942 44.0765 34.7239C41.6472 34.3104 38.9322 33.6212 37.789 32.1049C36.5029 30.359 36.36 20.8019 39.7181 19.056C42.8619 17.4938 54.0793 16.8505 59.6523 17.31C69.0836 18.0451 74.4422 19.9749 74.4422 22.6858C74.3708 26.3156 72.2988 32.6104 68.0833 34.5861C65.654 35.6888 53.5077 35.551 48.7921 35.2753C45.8627 38.0321 45.5055 37.9862 45.0768 37.8943ZM45.0053 34.1726L45.0768 34.4023C45.2911 35.2294 45.5055 36.2402 45.6484 36.9294C46.0771 36.6078 46.7915 35.9645 48.1491 34.7699L48.292 34.5861H48.5778C54.0793 34.9077 65.5111 34.9077 67.4403 34.0347C71.2271 32.2887 73.2991 26.3156 73.3705 22.6858C73.442 20.4803 68.0833 18.6884 59.5809 17.9992C54.2222 17.5856 43.2906 18.137 40.4326 19.6073C37.6461 21.0317 37.5032 30.0833 38.7893 31.7833C39.7896 33.1158 42.5046 33.7131 44.7195 34.0807L45.0053 34.1726Z" fill="black"/>
<path d="M291.829 16.1716C291.456 12.2387 286.215 8.54467 277.539 7.76265C271.664 7.23378 255.865 5.63824 250.013 10.342C247.113 12.7007 249.092 26.2229 250.806 28.8723C252.091 30.8593 259.595 33.1193 262.477 33.6923C262.833 35.0321 263.478 37.3454 263.611 38.078C263.745 38.8106 265.64 36.0831 266.785 34.2991C272.041 34.6624 284.862 34.6136 287.036 33.1055C290.897 30.4568 292.343 21.8344 291.829 16.1716Z" fill="white"/>
<path d="M263.208 38.1669C263.114 37.4945 262.522 35.3945 262.114 34.0409C259.297 33.4352 251.831 31.2355 250.481 29.0816C248.754 26.4787 246.593 12.609 249.762 10.0734C255.614 5.36966 270.641 6.75828 277.107 7.34605L277.595 7.37737C285.835 8.14187 291.871 11.7505 292.286 16.1425C292.745 21.3926 291.548 30.5293 287.341 33.4339C285.09 35.0211 272.282 35.0235 267.065 34.7204C264.381 38.7301 264.021 38.6335 263.648 38.5834C263.648 38.5834 263.648 38.5834 263.596 38.5696C263.493 38.542 263.249 38.4266 263.208 38.1669ZM277.51 8.10123L277.022 8.06991C270.671 7.46331 255.85 6.12987 250.279 10.6102C247.596 12.7783 249.42 26.0596 251.133 28.709C252.263 30.4552 259.124 32.6424 262.521 33.3534L262.778 33.4224L262.831 33.6356C263.134 34.7622 263.686 36.6025 263.911 37.6086C264.281 37.2598 265.033 36.3163 266.444 34.1559L266.546 33.9841L266.764 33.9928C272.625 34.3686 284.867 34.2144 286.772 32.8832C290.365 30.4115 291.955 22.2759 291.387 16.2003C291.11 13.1394 287.79 10.5077 282.822 9.07675C281.239 8.60269 279.451 8.27292 277.51 8.10123Z" fill="black"/>
<path d="M253.008 12.8852C252.756 15.4546 252.722 18.0327 252.739 20.6246C252.754 22.8177 252.628 25.1225 253.143 27.3005C253.34 28.0001 254.482 27.8583 254.285 27.1586C253.151 22.775 253.706 17.4507 254.113 13.082C254.262 12.3258 253.081 12.2081 253.008 12.8852Z" fill="black"/>
<path d="M253.285 20.6712C254.712 20.7049 256.086 20.7248 257.513 20.7585C258.284 20.7659 258.354 19.689 257.583 19.6816C256.156 19.6479 254.781 19.628 253.355 19.5943C252.584 19.5869 252.514 20.6638 253.285 20.6712Z" fill="black"/>
<path d="M256.996 12.4612C257.299 17.4682 257.423 22.5266 257.341 27.5299C257.32 28.2208 258.54 28.3987 258.522 27.6476C258.553 22.6306 258.468 17.6323 258.177 12.579C258.134 11.9206 256.901 11.7891 256.996 12.4612Z" fill="black"/>
<path d="M260.905 21.5201C261.11 23.4167 264.148 24.4299 265.345 22.8592C266.618 21.2094 264.602 19.2754 262.665 19.7022C257.869 20.7064 260.942 28.9462 265.704 26.6387C266.344 26.3124 265.836 25.3303 265.196 25.6565C263.161 26.6541 261.363 24.7288 261.466 22.9149C261.525 22.0845 261.943 21.1512 262.801 20.8337C263.032 20.796 263.199 20.791 263.43 20.7533C264.239 20.8209 264.538 21.349 264.199 22.4027C263.328 22.7666 262.169 22.3566 262.034 21.4246C262.017 20.6732 260.862 20.8615 260.905 21.5201Z" fill="black"/>
<path d="M267.246 13.3712C267.616 18.7447 268.152 24.1131 268.959 29.504C269.053 30.1761 270.246 30.0481 270.1 29.3621C269.294 23.9712 268.745 18.6492 268.388 13.2294C268.409 12.5384 267.203 12.7129 267.246 13.3712Z" fill="black"/>
<path d="M271.89 13.1266C271.899 18.2038 271.92 23.2345 271.877 28.2979C271.856 28.9888 273.025 29.1529 273.058 28.4156C273.101 23.3522 273.144 18.2889 273.072 13.2443C273.029 12.586 271.86 12.4219 271.89 13.1266Z" fill="black"/>
<path d="M278.059 20.5985C276.005 20.6452 275.308 24.042 275.395 25.5585C275.445 27.2142 276.781 29.2146 278.885 28.9823C283.261 28.5125 282.137 19.8002 277.342 21.0038C276.637 21.1632 276.837 22.2619 277.555 22.0561C281.453 21.1098 281.118 28.6847 277.952 27.7369C276.524 27.3043 276.398 25.7277 276.647 24.6C276.796 23.8436 277.206 21.7137 278.259 21.6973C279.042 21.6583 278.829 20.6059 278.059 20.5985Z" fill="black"/>
<path d="M284.779 17.3801C284.648 20.7282 284.747 24.0387 285 27.3905C285.031 28.0952 286.236 27.9208 286.142 27.2487C285.863 23.9896 285.803 20.7394 285.948 17.5442C285.982 16.8069 284.8 16.6892 284.779 17.3801Z" fill="black"/>
<path d="M285.783 30.2354C286.527 30.1362 286.314 29.0837 285.57 29.1829C284.826 29.2821 285.038 30.3346 285.783 30.2354Z" fill="black"/>
<path d="M165.787 25.9349C166.13 23.2435 162.876 21.1503 158.423 20.0395C155.426 19.2706 149.175 19.2278 147.291 20.5522C145.408 21.9192 144.252 31.1468 144.808 33.0692C145.236 34.5217 146.606 35.3334 148.019 35.9315C148.019 36.8713 148.062 38.4947 148.019 39.0073C147.976 39.52 149.347 37.7685 150.203 36.6577C152.9 37.2558 159.665 38.0675 160.992 37.1704C163.347 35.5897 165.273 29.8225 165.787 25.9349Z" fill="white"/>
<path d="M166.085 25.9776C166.427 23.2862 163.644 21.0221 158.464 19.7405C155.381 18.9715 149.045 18.9288 147.118 20.2958C145.02 21.791 143.95 31.4031 144.463 33.2401C144.934 34.8207 146.39 35.6751 147.674 36.2305C147.717 37.7257 147.717 38.7083 147.674 39.05C147.674 39.2636 147.76 39.4345 147.889 39.4772C147.931 39.4772 147.974 39.52 147.974 39.52C148.188 39.5627 148.574 39.3064 150.243 37.0849C152.812 37.5975 159.577 38.4947 161.075 37.5121C161.718 37.0849 162.317 36.4014 162.874 35.547C164.543 32.8983 165.742 28.7117 166.085 25.9776ZM150.072 36.2732L149.944 36.4441C149.087 37.5975 148.574 38.1529 148.317 38.452C148.317 37.7684 148.317 36.7431 148.274 35.8887V35.6751L148.103 35.5897C146.904 35.077 145.448 34.3508 145.063 32.941C144.549 31.1468 145.705 22.0901 147.418 20.8512C148.959 19.7405 153.84 19.655 157.008 20.1249C157.479 20.2104 157.907 20.2958 158.292 20.3813C160.262 20.8939 161.889 21.5347 163.088 22.3037C164.757 23.3717 165.614 24.6106 165.442 25.8922C164.972 29.5234 163.13 35.3761 160.776 36.8713C159.62 37.6403 153.198 36.9567 150.201 36.3159L150.072 36.2732Z" fill="black"/>
<path d="M152.732 34.1799C152.175 32.3857 151.019 29.4807 150.677 27.601C150.42 26.3194 150.249 24.9523 150.848 23.7989C151.233 23.0726 151.876 22.5173 152.689 22.4745C153.802 22.4318 154.916 24.4397 154.958 25.9349C156.157 24.397 157.784 23.7989 159.539 24.6533C159.882 24.8242 160.182 25.0378 160.396 25.3795C160.653 25.8067 160.653 26.4048 160.481 26.8747C160.224 27.6864 159.625 28.2845 158.983 28.8826C157.013 30.6341 154.659 32.5565 152.732 34.1799Z" fill="#FF9944"/>
<path d="M152.991 34.0945C152.263 31.7022 151.193 29.3526 150.85 26.8321C150.722 25.9777 150.679 24.9951 151.021 24.1834C151.321 23.4999 152.006 22.6455 152.863 22.7737C154.104 22.9445 154.704 24.9524 154.746 25.9777C154.746 26.1913 155.046 26.2767 155.217 26.1058C156.031 25.1233 157.101 24.3543 158.428 24.5679C159.113 24.6534 160.055 24.9951 160.312 25.7214C160.655 26.6612 159.927 27.6011 159.327 28.2419C157.315 30.3352 154.832 32.1294 152.606 34.0091C152.349 34.2227 152.648 34.6499 152.905 34.4363C154.532 33.0693 156.202 31.7022 157.786 30.3352C158.985 29.3099 160.783 28.071 160.869 26.3194C160.912 24.9097 159.499 24.1834 158.257 24.0553C156.844 23.9271 155.645 24.7388 154.789 25.8068C154.96 25.8495 155.089 25.8922 155.26 25.935C155.174 24.6961 154.618 23.1154 153.462 22.4746C152.22 21.7484 150.893 23.03 150.508 24.1407C149.951 25.7214 150.422 27.6011 150.85 29.1817C151.364 30.9332 152.006 32.5993 152.52 34.3081C152.606 34.6072 153.077 34.3936 152.991 34.0945Z" fill="black"/>
<path d="M48.0183 23.3746L46.6394 27.1018L45.0515 23.2827H44.7423L43.1628 27.1018L41.7839 23.3746H40.8062L42.9539 28.9822H43.2548L44.9011 25.0711L46.5475 28.9822H46.8399L48.9877 23.3746H48.0183ZM49.4829 26.1324C49.4494 27.7119 50.7949 29.0073 52.3744 28.9822C53.9372 29.0073 55.3077 27.7119 55.2743 26.1324C55.3077 24.5529 53.9372 23.2576 52.3744 23.2827C50.8033 23.2576 49.4578 24.5529 49.4829 26.1324ZM54.3634 26.1241C54.3634 27.3024 53.511 28.1716 52.3828 28.1716C51.2378 28.1716 50.4021 27.3024 50.4021 26.1241C50.4021 24.9624 51.2378 24.0933 52.3828 24.0933C53.511 24.0933 54.3634 24.9708 54.3634 26.1241ZM56.0037 26.1324C55.9702 27.7119 57.3157 29.0073 58.8952 28.9822C60.458 29.0073 61.8285 27.7119 61.7951 26.1324C61.8285 24.5529 60.458 23.2576 58.8952 23.2827C57.3241 23.2576 55.9786 24.5529 56.0037 26.1324ZM60.8842 26.1241C60.8842 27.3024 60.0318 28.1716 58.9035 28.1716C57.7586 28.1716 56.9229 27.3024 56.9229 26.1241C56.9229 24.9624 57.7586 24.0933 58.9035 24.0933C60.0318 24.0933 60.8842 24.9708 60.8842 26.1241ZM62.8587 28.8903H63.7446V26.6171H65.9341V25.8149H63.7446V24.1685H66.4021V23.3746H62.8587V28.8903Z" fill="#010101"/>
</g>
<defs>
<clipPath id="clip0_4905_32807">
<rect width="318" height="98" fill="white"/>
</clipPath>
</defs>
</svg>
